<svg width="149" height="149" viewBox="0 0 149 149" fill="none" xmlns="http://www.w3.org/2000/svg">
<path d="M72.1191 145.826C71.4809 145.188 70.4463 145.188 69.8081 145.826C69.17 146.464 69.17 147.499 69.8081 148.137C70.4463 148.775 71.4809 148.775 72.1191 148.137C72.7573 147.499 72.7573 146.464 72.1191 145.826Z" fill="#FF6B6B"/>
<path d="M65.1847 138.891C64.5466 138.253 63.5119 138.253 62.8737 138.891C62.2356 139.53 62.2356 140.564 62.8738 141.202C63.5119 141.841 64.5466 141.841 65.1847 141.202C65.8229 140.564 65.8229 139.53 65.1847 138.891Z" fill="#FF6B6B"/>
<path d="M58.2524 131.959C57.6142 131.321 56.5796 131.321 55.9414 131.959C55.3033 132.597 55.3033 133.632 55.9414 134.27C56.5796 134.908 57.6142 134.908 58.2524 134.27C58.8905 133.632 58.8905 132.597 58.2524 131.959Z" fill="#FF6B6B"/>
<path d="M51.3201 125.027C50.6819 124.389 49.6473 124.389 49.0091 125.027C48.371 125.665 48.371 126.7 49.0091 127.338C49.6473 127.976 50.6819 127.976 51.3201 127.338C51.9582 126.7 51.9582 125.665 51.3201 125.027Z" fill="#FF6B6B"/>
<path d="M44.3857 118.092C43.7475 117.454 42.7129 117.454 42.0747 118.092C41.4366 118.731 41.4366 119.765 42.0747 120.403C42.7129 121.041 43.7475 121.041 44.3857 120.403C45.0238 119.765 45.0238 118.731 44.3857 118.092Z" fill="#FF6B6B"/>
<path d="M37.4534 111.16C36.8152 110.522 35.7806 110.522 35.1424 111.16C34.5042 111.798 34.5042 112.833 35.1424 113.471C35.7806 114.109 36.8152 114.109 37.4534 113.471C38.0915 112.833 38.0915 111.798 37.4534 111.16Z" fill="#FF6B6B"/>
<path d="M30.521 104.228C29.8829 103.59 28.8482 103.59 28.2101 104.228C27.5719 104.866 27.5719 105.901 28.2101 106.539C28.8482 107.177 29.8829 107.177 30.521 106.539C31.1592 105.901 31.1592 104.866 30.521 104.228Z" fill="#FF6B6B"/>
<path d="M23.5887 97.2954C22.9506 96.6573 21.9159 96.6573 21.2778 97.2954C20.6396 97.9336 20.6396 98.9682 21.2778 99.6064C21.9159 100.245 22.9506 100.245 23.5887 99.6064C24.2269 98.9682 24.2269 97.9336 23.5887 97.2954Z" fill="#FF6B6B"/>
<path d="M16.6564 90.3631C16.0182 89.7249 14.9836 89.7249 14.3454 90.3631C13.7073 91.0012 13.7073 92.0359 14.3454 92.674C14.9836 93.3122 16.0182 93.3122 16.6564 92.674C17.2945 92.0359 17.2946 91.0012 16.6564 90.3631Z" fill="#FF6B6B"/>
<path d="M9.72201 83.4287C9.08385 82.7905 8.0492 82.7905 7.41105 83.4287C6.77289 84.0669 6.77289 85.1015 7.41105 85.7397C8.0492 86.3778 9.08385 86.3778 9.72201 85.7397C10.3602 85.1015 10.3602 84.0669 9.72201 83.4287Z" fill="#FF6B6B"/>
<path d="M2.78968 76.4964C2.15153 75.8582 1.11688 75.8582 0.478725 76.4964C-0.159429 77.1345 -0.159434 78.1692 0.47872 78.8073C1.11688 79.4455 2.15153 79.4455 2.78968 78.8073C3.42784 78.1692 3.42784 77.1345 2.78968 76.4964Z" fill="#FF6B6B"/>
<path d="M79.0521 138.893C78.4139 138.255 77.3793 138.255 76.7411 138.893C76.1029 139.531 76.1029 140.566 76.7411 141.204C77.3793 141.842 78.4139 141.842 79.0521 141.204C79.6902 140.566 79.6902 139.531 79.0521 138.893Z" fill="#FF6B6B"/>
<path d="M72.1177 131.958C71.4795 131.32 70.4449 131.32 69.8067 131.958C69.1686 132.597 69.1686 133.631 69.8067 134.269C70.4449 134.908 71.4795 134.908 72.1177 134.269C72.7558 133.631 72.7558 132.597 72.1177 131.958Z" fill="#FF6B6B"/>
<path d="M65.1854 125.026C64.5472 124.388 63.5125 124.388 62.8744 125.026C62.2362 125.664 62.2362 126.699 62.8744 127.337C63.5125 127.975 64.5472 127.975 65.1854 127.337C65.8235 126.699 65.8235 125.664 65.1854 125.026Z" fill="#FF6B6B"/>
<path d="M58.253 118.094C57.6149 117.456 56.5802 117.456 55.9421 118.094C55.3039 118.732 55.3039 119.767 55.9421 120.405C56.5802 121.043 57.6149 121.043 58.253 120.405C58.8912 119.767 58.8912 118.732 58.253 118.094Z" fill="#FF6B6B"/>
<path d="M51.3186 111.159C50.6805 110.521 49.6458 110.521 49.0077 111.159C48.3695 111.798 48.3695 112.832 49.0077 113.47C49.6458 114.109 50.6805 114.109 51.3186 113.47C51.9568 112.832 51.9568 111.798 51.3186 111.159Z" fill="#FF6B6B"/>
<path d="M44.3863 104.227C43.7482 103.589 42.7135 103.589 42.0754 104.227C41.4372 104.865 41.4372 105.9 42.0754 106.538C42.7135 107.176 43.7482 107.176 44.3863 106.538C45.0245 105.9 45.0245 104.865 44.3863 104.227Z" fill="#FF6B6B"/>
<path d="M37.454 97.2948C36.8159 96.6566 35.7812 96.6566 35.143 97.2948C34.5049 97.9329 34.5049 98.9676 35.143 99.6057C35.7812 100.244 36.8158 100.244 37.454 99.6057C38.0922 98.9676 38.0922 97.9329 37.454 97.2948Z" fill="#FF6B6B"/>
<path d="M30.5217 90.3624C29.8835 89.7243 28.8489 89.7243 28.2107 90.3624C27.5726 91.0006 27.5726 92.0352 28.2107 92.6734C28.8489 93.3116 29.8835 93.3116 30.5217 92.6734C31.1598 92.0352 31.1598 91.0006 30.5217 90.3624Z" fill="#FF6B6B"/>
<path d="M23.5894 83.4301C22.9512 82.792 21.9166 82.792 21.2784 83.4301C20.6402 84.0683 20.6402 85.1029 21.2784 85.7411C21.9166 86.3792 22.9512 86.3792 23.5894 85.7411C24.2275 85.1029 24.2275 84.0683 23.5894 83.4301Z" fill="#FF6B6B"/>
<path d="M16.655 76.4957C16.0168 75.8576 14.9822 75.8576 14.344 76.4957C13.7059 77.1339 13.7059 78.1685 14.344 78.8067C14.9822 79.4448 16.0168 79.4448 16.655 78.8067C17.2931 78.1685 17.2931 77.1339 16.655 76.4957Z" fill="#FF6B6B"/>
<path d="M9.72265 69.5634C9.08449 68.9253 8.04985 68.9253 7.41169 69.5634C6.77354 70.2016 6.77353 71.2362 7.41169 71.8744C8.04984 72.5125 9.0845 72.5125 9.72265 71.8744C10.3608 71.2362 10.3608 70.2016 9.72265 69.5634Z" fill="#FF6B6B"/>
<path d="M85.9849 131.96C85.3467 131.322 84.3121 131.322 83.6739 131.96C83.0358 132.598 83.0358 133.633 83.6739 134.271C84.3121 134.909 85.3467 134.909 85.9849 134.271C86.6231 133.633 86.6231 132.598 85.9849 131.96Z" fill="#FF6B6B"/>
<path d="M79.0505 125.026C78.4124 124.387 77.3777 124.387 76.7396 125.026C76.1014 125.664 76.1014 126.698 76.7396 127.337C77.3777 127.975 78.4124 127.975 79.0505 127.337C79.6887 126.698 79.6887 125.664 79.0505 125.026Z" fill="#FF6B6B"/>
<path d="M72.1182 118.093C71.48 117.455 70.4454 117.455 69.8072 118.093C69.1691 118.731 69.1691 119.766 69.8072 120.404C70.4454 121.042 71.48 121.042 72.1182 120.404C72.7563 119.766 72.7563 118.731 72.1182 118.093Z" fill="#FF6B6B"/>
<path d="M65.1859 111.161C64.5477 110.523 63.5131 110.523 62.8749 111.161C62.2368 111.799 62.2368 112.834 62.8749 113.472C63.5131 114.11 64.5477 114.11 65.1859 113.472C65.824 112.834 65.824 111.799 65.1859 111.161Z" fill="#FF6B6B"/>
<path d="M58.2515 104.227C57.6133 103.588 56.5787 103.588 55.9405 104.227C55.3024 104.865 55.3024 105.899 55.9405 106.538C56.5787 107.176 57.6133 107.176 58.2515 106.538C58.8896 105.899 58.8896 104.865 58.2515 104.227Z" fill="#FF6B6B"/>
<path d="M51.3192 97.2942C50.681 96.6561 49.6464 96.6561 49.0082 97.2942C48.3701 97.9324 48.37 98.967 49.0082 99.6052C49.6464 100.243 50.681 100.243 51.3192 99.6052C51.9573 98.967 51.9573 97.9324 51.3192 97.2942Z" fill="#FF6B6B"/>
<path d="M44.3868 90.3619C43.7487 89.7238 42.714 89.7238 42.0759 90.3619C41.4377 91.0001 41.4377 92.0347 42.0759 92.6729C42.714 93.311 43.7487 93.311 44.3868 92.6729C45.025 92.0347 45.025 91.0001 44.3868 90.3619Z" fill="#FF6B6B"/>
<path d="M37.4545 83.4296C36.8164 82.7914 35.7817 82.7914 35.1436 83.4296C34.5054 84.0678 34.5054 85.1024 35.1436 85.7406C35.7817 86.3787 36.8164 86.3787 37.4545 85.7406C38.0927 85.1024 38.0927 84.0678 37.4545 83.4296Z" fill="#FF6B6B"/>
<path d="M30.5222 76.4973C29.884 75.8591 28.8494 75.8591 28.2112 76.4973C27.5731 77.1354 27.5731 78.1701 28.2112 78.8082C28.8494 79.4464 29.884 79.4464 30.5222 78.8082C31.1604 78.1701 31.1604 77.1354 30.5222 76.4973Z" fill="#FF6B6B"/>
<path d="M23.5878 69.5629C22.9497 68.9247 21.915 68.9247 21.2768 69.5629C20.6387 70.201 20.6387 71.2357 21.2768 71.8739C21.915 72.512 22.9497 72.512 23.5878 71.8738C24.226 71.2357 24.226 70.201 23.5878 69.5629Z" fill="#FF6B6B"/>
<path d="M16.6555 62.6306C16.0173 61.9924 14.9827 61.9924 14.3445 62.6306C13.7064 63.2687 13.7064 64.3034 14.3445 64.9415C14.9827 65.5797 16.0173 65.5797 16.6555 64.9415C17.2936 64.3034 17.2936 63.2687 16.6555 62.6306Z" fill="#FF6B6B"/>
<path d="M92.9179 125.027C92.2797 124.389 91.2451 124.389 90.6069 125.027C89.9687 125.665 89.9688 126.7 90.6069 127.338C91.2451 127.976 92.2797 127.976 92.9179 127.338C93.556 126.7 93.556 125.665 92.9179 125.027Z" fill="#FF6B6B"/>
<path d="M85.9835 118.093C85.3453 117.454 84.3107 117.454 83.6725 118.093C83.0344 118.731 83.0344 119.765 83.6725 120.404C84.3107 121.042 85.3453 121.042 85.9835 120.404C86.6216 119.765 86.6216 118.731 85.9835 118.093Z" fill="#FF6B6B"/>
<path d="M79.0512 111.16C78.413 110.522 77.3783 110.522 76.7402 111.16C76.102 111.798 76.102 112.833 76.7402 113.471C77.3783 114.109 78.413 114.109 79.0512 113.471C79.6893 112.833 79.6893 111.798 79.0512 111.16Z" fill="#FF6B6B"/>
<path d="M72.1188 104.228C71.4807 103.59 70.446 103.59 69.8079 104.228C69.1697 104.866 69.1697 105.901 69.8079 106.539C70.446 107.177 71.4807 107.177 72.1188 106.539C72.757 105.901 72.757 104.866 72.1188 104.228Z" fill="#FF6B6B"/>
<path d="M65.1845 97.2936C64.5463 96.6554 63.5116 96.6554 62.8735 97.2936C62.2353 97.9317 62.2353 98.9664 62.8735 99.6046C63.5116 100.243 64.5463 100.243 65.1844 99.6046C65.8226 98.9664 65.8226 97.9317 65.1845 97.2936Z" fill="#FF6B6B"/>
<path d="M58.2521 90.3613C57.614 89.7231 56.5793 89.7231 55.9412 90.3613C55.303 90.9994 55.303 92.0341 55.9412 92.6722C56.5793 93.3104 57.614 93.3104 58.2521 92.6722C58.8903 92.0341 58.8903 90.9994 58.2521 90.3613Z" fill="#FF6B6B"/>
<path d="M51.3198 83.4289C50.6817 82.7908 49.647 82.7908 49.0088 83.429C48.3707 84.0671 48.3707 85.1018 49.0088 85.7399C49.647 86.3781 50.6816 86.3781 51.3198 85.7399C51.958 85.1018 51.958 84.0671 51.3198 83.4289Z" fill="#FF6B6B"/>
<path d="M44.3875 76.4966C43.7493 75.8585 42.7147 75.8585 42.0765 76.4966C41.4384 77.1348 41.4384 78.1694 42.0765 78.8076C42.7147 79.4457 43.7493 79.4457 44.3875 78.8076C45.0256 78.1694 45.0256 77.1348 44.3875 76.4966Z" fill="#FF6B6B"/>
<path d="M37.4552 69.5643C36.817 68.9262 35.7824 68.9262 35.1442 69.5643C34.5061 70.2025 34.5061 71.2371 35.1442 71.8753C35.7824 72.5134 36.817 72.5134 37.4552 71.8753C38.0933 71.2371 38.0933 70.2025 37.4552 69.5643Z" fill="#FF6B6B"/>
<path d="M30.5208 62.6299C29.8826 61.9918 28.848 61.9918 28.2098 62.6299C27.5717 63.2681 27.5717 64.3027 28.2098 64.9409C28.848 65.579 29.8826 65.579 30.5208 64.9409C31.1589 64.3027 31.1589 63.2681 30.5208 62.6299Z" fill="#FF6B6B"/>
<path d="M23.5885 55.6976C22.9503 55.0594 21.9156 55.0594 21.2775 55.6976C20.6393 56.3358 20.6393 57.3704 21.2775 58.0086C21.9156 58.6467 22.9503 58.6467 23.5885 58.0086C24.2266 57.3704 24.2266 56.3358 23.5885 55.6976Z" fill="#FF6B6B"/>
<path d="M99.8506 118.094C99.2124 117.456 98.1778 117.456 97.5396 118.094C96.9015 118.732 96.9015 119.767 97.5396 120.405C98.1778 121.043 99.2124 121.043 99.8506 120.405C100.489 119.767 100.489 118.732 99.8506 118.094Z" fill="#FF6B6B"/>
<path d="M92.9162 111.16C92.278 110.522 91.2434 110.522 90.6052 111.16C89.9671 111.798 89.9671 112.833 90.6052 113.471C91.2434 114.109 92.278 114.109 92.9162 113.471C93.5543 112.833 93.5543 111.798 92.9162 111.16Z" fill="#FF6B6B"/>
<path d="M85.9839 104.228C85.3457 103.589 84.3111 103.589 83.6729 104.228C83.0347 104.866 83.0348 105.9 83.6729 106.539C84.3111 107.177 85.3457 107.177 85.9839 106.539C86.622 105.9 86.622 104.866 85.9839 104.228Z" fill="#FF6B6B"/>
<path d="M79.0515 97.2953C78.4134 96.6571 77.3787 96.6571 76.7406 97.2953C76.1024 97.9334 76.1024 98.9681 76.7406 99.6062C77.3787 100.244 78.4134 100.244 79.0515 99.6062C79.6897 98.9681 79.6897 97.9334 79.0515 97.2953Z" fill="#FF6B6B"/>
<path d="M72.1172 90.3609C71.479 89.7227 70.4443 89.7227 69.8062 90.3609C69.168 90.999 69.168 92.0337 69.8062 92.6718C70.4444 93.31 71.479 93.31 72.1172 92.6718C72.7553 92.0337 72.7553 90.999 72.1172 90.3609Z" fill="#FF6B6B"/>
<path d="M65.1848 83.4286C64.5467 82.7904 63.512 82.7904 62.8739 83.4286C62.2357 84.0667 62.2357 85.1014 62.8739 85.7395C63.512 86.3777 64.5467 86.3777 65.1848 85.7395C65.823 85.1014 65.823 84.0667 65.1848 83.4286Z" fill="#FF6B6B"/>
<path d="M58.2525 76.4962C57.6144 75.8581 56.5797 75.8581 55.9416 76.4962C55.3034 77.1344 55.3034 78.169 55.9416 78.8072C56.5797 79.4454 57.6144 79.4454 58.2525 78.8072C58.8907 78.169 58.8907 77.1344 58.2525 76.4962Z" fill="#FF6B6B"/>
<path d="M51.3202 69.5639C50.682 68.9258 49.6474 68.9258 49.0092 69.5639C48.3711 70.2021 48.3711 71.2367 49.0092 71.8749C49.6474 72.513 50.682 72.513 51.3202 71.8749C51.9583 71.2367 51.9583 70.2021 51.3202 69.5639Z" fill="#FF6B6B"/>
<path d="M44.3879 62.6316C43.7497 61.9934 42.7151 61.9934 42.0769 62.6316C41.4388 63.2698 41.4388 64.3044 42.0769 64.9426C42.7151 65.5807 43.7497 65.5807 44.3879 64.9426C45.026 64.3044 45.026 63.2698 44.3879 62.6316Z" fill="#FF6B6B"/>
<path d="M37.4535 55.6972C36.8153 55.0591 35.7807 55.0591 35.1425 55.6972C34.5044 56.3354 34.5044 57.37 35.1425 58.0082C35.7807 58.6463 36.8153 58.6463 37.4535 58.0082C38.0916 57.37 38.0916 56.3354 37.4535 55.6972Z" fill="#FF6B6B"/>
<path d="M30.5212 48.7649C29.883 48.1267 28.8484 48.1267 28.2102 48.7649C27.572 49.4031 27.572 50.4377 28.2102 51.0759C28.8484 51.714 29.883 51.714 30.5212 51.0759C31.1593 50.4377 31.1593 49.403 30.5212 48.7649Z" fill="#FF6B6B"/>
<path d="M110.68 104.954C111.319 104.315 112.353 104.315 112.991 104.954C113.629 105.592 113.629 106.626 112.991 107.264C112.353 107.903 111.319 107.903 110.68 107.264C110.042 106.626 110.042 105.592 110.68 104.954Z" fill="#FF6B6B"/>
<path d="M103.746 98.0191C104.384 97.381 105.419 97.381 106.057 98.0191C106.695 98.6573 106.695 99.692 106.057 100.33C105.419 100.968 104.384 100.968 103.746 100.33C103.108 99.692 103.108 98.6573 103.746 98.0191Z" fill="#FF6B6B"/>
<path d="M96.8137 91.0868C97.4518 90.4487 98.4865 90.4487 99.1246 91.0868C99.7628 91.725 99.7628 92.7596 99.1246 93.3978C98.4865 94.0359 97.4518 94.0359 96.8137 93.3978C96.1755 92.7596 96.1755 91.725 96.8137 91.0868Z" fill="#FF6B6B"/>
<path d="M89.8814 84.1545C90.5195 83.5164 91.5542 83.5163 92.1923 84.1545C92.8305 84.7927 92.8305 85.8273 92.1923 86.4655C91.5542 87.1036 90.5195 87.1036 89.8814 86.4655C89.2432 85.8273 89.2432 84.7927 89.8814 84.1545Z" fill="#FF6B6B"/>
<path d="M82.947 77.2201C83.5851 76.582 84.6198 76.582 85.2579 77.2201C85.8961 77.8583 85.8961 78.8929 85.2579 79.5311C84.6198 80.1692 83.5851 80.1692 82.947 79.5311C82.3088 78.8929 82.3088 77.8583 82.947 77.2201Z" fill="#FF6B6B"/>
<path d="M76.0146 70.2878C76.6528 69.6496 77.6874 69.6496 78.3256 70.2878C78.9638 70.9259 78.9638 71.9606 78.3256 72.5988C77.6874 73.2369 76.6528 73.2369 76.0146 72.5988C75.3765 71.9606 75.3765 70.926 76.0146 70.2878Z" fill="#FF6B6B"/>
<path d="M69.0823 63.3555C69.7205 62.7173 70.7551 62.7173 71.3933 63.3555C72.0314 63.9936 72.0314 65.0283 71.3933 65.6664C70.7551 66.3046 69.7205 66.3046 69.0823 65.6664C68.4442 65.0283 68.4442 63.9936 69.0823 63.3555Z" fill="#FF6B6B"/>
<path d="M62.15 56.4232C62.7882 55.785 63.8228 55.785 64.461 56.4232C65.0991 57.0613 65.0991 58.096 64.461 58.7341C63.8228 59.3723 62.7882 59.3723 62.15 58.7341C61.5118 58.096 61.5118 57.0613 62.15 56.4232Z" fill="#FF6B6B"/>
<path d="M55.2177 49.4908C55.8558 48.8527 56.8905 48.8527 57.5286 49.4908C58.1668 50.129 58.1668 51.1636 57.5286 51.8018C56.8905 52.44 55.8558 52.44 55.2177 51.8018C54.5795 51.1636 54.5795 50.129 55.2177 49.4908Z" fill="#FF6B6B"/>
<path d="M48.2833 42.5565C48.9214 41.9183 49.9561 41.9183 50.5943 42.5564C51.2324 43.1946 51.2324 44.2293 50.5943 44.8674C49.9561 45.5056 48.9214 45.5056 48.2833 44.8674C47.6451 44.2293 47.6451 43.1946 48.2833 42.5565Z" fill="#FF6B6B"/>
<path d="M41.351 35.6241C41.9891 34.986 43.0238 34.986 43.6619 35.6241C44.3001 36.2623 44.3001 37.2969 43.6619 37.9351C43.0238 38.5732 41.9891 38.5732 41.351 37.9351C40.7128 37.2969 40.7128 36.2623 41.351 35.6241Z" fill="#FF6B6B"/>
<path d="M117.613 98.0206C118.251 97.3824 119.286 97.3824 119.924 98.0206C120.562 98.6587 120.562 99.6934 119.924 100.332C119.286 100.97 118.252 100.97 117.613 100.332C116.975 99.6934 116.975 98.6587 117.613 98.0206Z" fill="#FF6B6B"/>
<path d="M110.679 91.0862C111.317 90.448 112.352 90.448 112.99 91.0862C113.628 91.7243 113.628 92.759 112.99 93.3971C112.352 94.0353 111.317 94.0353 110.679 93.3971C110.041 92.759 110.041 91.7243 110.679 91.0862Z" fill="#FF6B6B"/>
<path d="M103.747 84.1539C104.385 83.5157 105.419 83.5157 106.058 84.1539C106.696 84.792 106.696 85.8267 106.058 86.4648C105.419 87.103 104.385 87.103 103.747 86.4648C103.108 85.8267 103.108 84.792 103.747 84.1539Z" fill="#FF6B6B"/>
<path d="M96.8143 77.2215C97.4525 76.5834 98.4871 76.5834 99.1253 77.2215C99.7634 77.8597 99.7634 78.8943 99.1253 79.5325C98.4871 80.1706 97.4525 80.1706 96.8143 79.5325C96.1762 78.8943 96.1762 77.8597 96.8143 77.2215Z" fill="#FF6B6B"/>
<path d="M89.8799 70.2871C90.5181 69.649 91.5527 69.649 92.1909 70.2872C92.829 70.9253 92.829 71.96 92.1909 72.5981C91.5527 73.2363 90.5181 73.2363 89.8799 72.5981C89.2418 71.96 89.2418 70.9253 89.8799 70.2871Z" fill="#FF6B6B"/>
<path d="M82.9476 63.3548C83.5858 62.7167 84.6204 62.7167 85.2586 63.3548C85.8967 63.993 85.8967 65.0276 85.2586 65.6658C84.6204 66.3039 83.5858 66.3039 82.9476 65.6658C82.3095 65.0276 82.3095 63.993 82.9476 63.3548Z" fill="#FF6B6B"/>
<path d="M76.0153 56.4225C76.6534 55.7844 77.6881 55.7844 78.3263 56.4225C78.9644 57.0607 78.9644 58.0953 78.3263 58.7335C77.6881 59.3716 76.6534 59.3716 76.0153 58.7335C75.3771 58.0953 75.3771 57.0607 76.0153 56.4225Z" fill="#FF6B6B"/>
<path d="M69.083 49.4902C69.7211 48.852 70.7558 48.852 71.3939 49.4902C72.0321 50.1283 72.0321 51.163 71.3939 51.8012C70.7558 52.4393 69.7211 52.4393 69.083 51.8012C68.4448 51.163 68.4448 50.1283 69.083 49.4902Z" fill="#FF6B6B"/>
<path d="M62.1506 42.5579C62.7888 41.9197 63.8235 41.9197 64.4616 42.5579C65.0998 43.196 65.0998 44.2307 64.4616 44.8688C63.8235 45.507 62.7888 45.507 62.1506 44.8688C61.5125 44.2307 61.5125 43.196 62.1506 42.5579Z" fill="#FF6B6B"/>
<path d="M55.2163 35.6235C55.8544 34.9853 56.8891 34.9853 57.5272 35.6235C58.1654 36.2616 58.1654 37.2963 57.5272 37.9344C56.8891 38.5726 55.8544 38.5726 55.2163 37.9344C54.5781 37.2963 54.5781 36.2616 55.2163 35.6235Z" fill="#FF6B6B"/>
<path d="M48.2839 28.6912C48.9221 28.053 49.9567 28.053 50.5949 28.6912C51.233 29.3293 51.2331 30.364 50.5949 31.0021C49.9567 31.6403 48.9221 31.6403 48.2839 31.0021C47.6458 30.364 47.6458 29.3293 48.2839 28.6912Z" fill="#FF6B6B"/>
<path d="M124.546 91.0877C125.184 90.4496 126.219 90.4496 126.857 91.0877C127.495 91.7259 127.495 92.7605 126.857 93.3987C126.219 94.0368 125.184 94.0368 124.546 93.3987C123.908 92.7605 123.908 91.7259 124.546 91.0877Z" fill="#FF6B6B"/>
<path d="M117.612 84.1533C118.25 83.5152 119.285 83.5152 119.923 84.1533C120.561 84.7915 120.561 85.8261 119.923 86.4643C119.285 87.1025 118.25 87.1024 117.612 86.4643C116.974 85.8261 116.974 84.7915 117.612 84.1533Z" fill="#FF6B6B"/>
<path d="M110.679 77.221C111.318 76.5829 112.352 76.5829 112.99 77.221C113.629 77.8592 113.629 78.8938 112.99 79.532C112.352 80.1701 111.318 80.1701 110.679 79.532C110.041 78.8938 110.041 77.8592 110.679 77.221Z" fill="#FF6B6B"/>
<path d="M103.747 70.2887C104.385 69.6505 105.42 69.6505 106.058 70.2887C106.696 70.9269 106.696 71.9615 106.058 72.5997C105.42 73.2378 104.385 73.2378 103.747 72.5997C103.109 71.9615 103.109 70.9268 103.747 70.2887Z" fill="#FF6B6B"/>
<path d="M96.8128 63.3543C97.4509 62.7162 98.4856 62.7162 99.1237 63.3543C99.7619 63.9925 99.7619 65.0271 99.1237 65.6653C98.4856 66.3034 97.4509 66.3034 96.8128 65.6653C96.1746 65.0271 96.1746 63.9925 96.8128 63.3543Z" fill="#FF6B6B"/>
<path d="M89.8805 56.422C90.5186 55.7838 91.5532 55.7838 92.1914 56.422C92.8296 57.0601 92.8296 58.0948 92.1914 58.733C91.5533 59.3711 90.5186 59.3711 89.8804 58.733C89.2423 58.0948 89.2423 57.0601 89.8805 56.422Z" fill="#FF6B6B"/>
<path d="M82.9481 49.4897C83.5863 48.8515 84.6209 48.8515 85.2591 49.4897C85.8972 50.1278 85.8972 51.1625 85.2591 51.8006C84.6209 52.4388 83.5863 52.4388 82.9481 51.8006C82.31 51.1625 82.31 50.1278 82.9481 49.4897Z" fill="#FF6B6B"/>
<path d="M76.0158 42.5574C76.654 41.9192 77.6886 41.9192 78.3268 42.5574C78.9649 43.1955 78.9649 44.2302 78.3268 44.8683C77.6886 45.5065 76.654 45.5065 76.0158 44.8683C75.3776 44.2302 75.3777 43.1955 76.0158 42.5574Z" fill="#FF6B6B"/>
<path d="M69.0835 35.625C69.7216 34.9869 70.7563 34.9869 71.3944 35.625C72.0326 36.2632 72.0326 37.2978 71.3944 37.936C70.7563 38.5741 69.7216 38.5742 69.0835 37.936C68.4453 37.2978 68.4453 36.2632 69.0835 35.625Z" fill="#FF6B6B"/>
<path d="M62.1491 28.6906C62.7872 28.0525 63.8219 28.0525 64.4601 28.6906C65.0982 29.3288 65.0982 30.3635 64.4601 31.0016C63.8219 31.6398 62.7872 31.6398 62.1491 31.0016C61.5109 30.3635 61.5109 29.3288 62.1491 28.6906Z" fill="#FF6B6B"/>
<path d="M55.2168 21.7583C55.8549 21.1202 56.8896 21.1202 57.5277 21.7583C58.1659 22.3965 58.1659 23.4311 57.5277 24.0693C56.8896 24.7074 55.8549 24.7074 55.2168 24.0693C54.5786 23.4311 54.5786 22.3965 55.2168 21.7583Z" fill="#FF6B6B"/>
<path d="M131.479 84.1548C132.117 83.5166 133.152 83.5166 133.79 84.1548C134.428 84.7929 134.428 85.8276 133.79 86.4657C133.152 87.1039 132.117 87.1039 131.479 86.4657C130.841 85.8276 130.841 84.7929 131.479 84.1548Z" fill="#FF6B6B"/>
<path d="M124.545 77.2204C125.183 76.5822 126.218 76.5822 126.856 77.2204C127.494 77.8585 127.494 78.8932 126.856 79.5313C126.218 80.1695 125.183 80.1695 124.545 79.5313C123.907 78.8932 123.907 77.8585 124.545 77.2204Z" fill="#FF6B6B"/>
<path d="M117.612 70.288C118.251 69.6499 119.285 69.6499 119.923 70.288C120.562 70.9262 120.562 71.9609 119.923 72.599C119.285 73.2372 118.251 73.2372 117.612 72.599C116.974 71.9609 116.974 70.9262 117.612 70.288Z" fill="#FF6B6B"/>
<path d="M110.68 63.3557C111.318 62.7176 112.353 62.7176 112.991 63.3557C113.629 63.9939 113.629 65.0285 112.991 65.6667C112.353 66.3049 111.318 66.3048 110.68 65.6667C110.042 65.0285 110.042 63.9939 110.68 63.3557Z" fill="#FF6B6B"/>
<path d="M103.746 56.4213C104.384 55.7832 105.419 55.7832 106.057 56.4213C106.695 57.0595 106.695 58.0942 106.057 58.7323C105.419 59.3705 104.384 59.3705 103.746 58.7323C103.108 58.0942 103.108 57.0595 103.746 56.4213Z" fill="#FF6B6B"/>
<path d="M96.8134 49.489C97.4516 48.8509 98.4862 48.8509 99.1244 49.489C99.7625 50.1272 99.7625 51.1618 99.1244 51.8C98.4862 52.4381 97.4516 52.4381 96.8134 51.8C96.1753 51.1618 96.1753 50.1272 96.8134 49.489Z" fill="#FF6B6B"/>
<path d="M89.8811 42.5567C90.5193 41.9186 91.5539 41.9185 92.1921 42.5567C92.8302 43.1949 92.8302 44.2295 92.1921 44.8677C91.5539 45.5058 90.5192 45.5058 89.8811 44.8677C89.2429 44.2295 89.2429 43.1949 89.8811 42.5567Z" fill="#FF6B6B"/>
<path d="M82.9488 35.6244C83.5869 34.9862 84.6216 34.9862 85.2597 35.6244C85.8979 36.2625 85.8979 37.2972 85.2597 37.9354C84.6216 38.5735 83.5869 38.5735 82.9488 37.9354C82.3106 37.2972 82.3106 36.2625 82.9488 35.6244Z" fill="#FF6B6B"/>
<path d="M76.0164 28.6921C76.6546 28.0539 77.6893 28.0539 78.3274 28.6921C78.9656 29.3302 78.9656 30.3649 78.3274 31.003C77.6893 31.6412 76.6546 31.6412 76.0164 31.003C75.3783 30.3649 75.3783 29.3302 76.0164 28.6921Z" fill="#FF6B6B"/>
<path d="M69.0821 21.7577C69.7202 21.1195 70.7549 21.1195 71.393 21.7577C72.0312 22.3958 72.0312 23.4305 71.393 24.0686C70.7549 24.7068 69.7202 24.7068 69.0821 24.0686C68.4439 23.4305 68.4439 22.3958 69.0821 21.7577Z" fill="#FF6B6B"/>
<path d="M62.1497 14.8254C62.7879 14.1872 63.8225 14.1872 64.4607 14.8254C65.0989 15.4635 65.0989 16.4982 64.4607 17.1363C63.8225 17.7745 62.7879 17.7745 62.1497 17.1363C61.5116 16.4982 61.5116 15.4635 62.1497 14.8254Z" fill="#FF6B6B"/>
<path d="M138.412 77.222C139.05 76.5839 140.085 76.5839 140.723 77.222C141.361 77.8602 141.361 78.8949 140.723 79.533C140.085 80.1712 139.05 80.1712 138.412 79.533C137.774 78.8949 137.774 77.8602 138.412 77.222Z" fill="#FF6B6B"/>
<path d="M131.477 70.2877C132.116 69.6495 133.15 69.6495 133.788 70.2877C134.427 70.9258 134.427 71.9605 133.788 72.5986C133.15 73.2368 132.116 73.2368 131.477 72.5986C130.839 71.9605 130.839 70.9258 131.477 70.2877Z" fill="#FF6B6B"/>
<path d="M124.545 63.3553C125.183 62.7172 126.218 62.7172 126.856 63.3553C127.494 63.9935 127.494 65.0282 126.856 65.6663C126.218 66.3045 125.183 66.3045 124.545 65.6663C123.907 65.0281 123.907 63.9935 124.545 63.3553Z" fill="#FF6B6B"/>
<path d="M117.613 56.423C118.251 55.7849 119.286 55.7849 119.924 56.423C120.562 57.0612 120.562 58.0958 119.924 58.734C119.286 59.3721 118.251 59.3721 117.613 58.734C116.975 58.0958 116.975 57.0612 117.613 56.423Z" fill="#FF6B6B"/>
<path d="M110.678 49.4886C111.317 48.8505 112.351 48.8505 112.989 49.4886C113.628 50.1268 113.628 51.1614 112.989 51.7996C112.351 52.4377 111.317 52.4377 110.678 51.7996C110.04 51.1614 110.04 50.1268 110.678 49.4886Z" fill="#FF6B6B"/>
<path d="M103.746 42.5563C104.384 41.9182 105.419 41.9182 106.057 42.5563C106.695 43.1945 106.695 44.2291 106.057 44.8673C105.419 45.5054 104.384 45.5054 103.746 44.8673C103.108 44.2291 103.108 43.1945 103.746 42.5563Z" fill="#FF6B6B"/>
<path d="M96.8138 35.624C97.452 34.9858 98.4866 34.9858 99.1248 35.624C99.7629 36.2621 99.7629 37.2968 99.1248 37.935C98.4866 38.5731 97.452 38.5731 96.8138 37.935C96.1756 37.2968 96.1756 36.2621 96.8138 35.624Z" fill="#FF6B6B"/>
<path d="M89.8815 28.6917C90.5196 28.0535 91.5543 28.0535 92.1924 28.6917C92.8306 29.3298 92.8306 30.3645 92.1924 31.0026C91.5543 31.6408 90.5196 31.6408 89.8815 31.0026C89.2433 30.3645 89.2433 29.3298 89.8815 28.6917Z" fill="#FF6B6B"/>
<path d="M82.9492 21.7594C83.5873 21.1212 84.622 21.1212 85.2601 21.7594C85.8983 22.3975 85.8983 23.4322 85.2601 24.0703C84.622 24.7085 83.5873 24.7085 82.9492 24.0703C82.311 23.4322 82.311 22.3975 82.9492 21.7594Z" fill="#FF6B6B"/>
<path d="M76.0148 14.825C76.6529 14.1868 77.6876 14.1868 78.3257 14.825C78.9639 15.4631 78.9639 16.4978 78.3257 17.1359C77.6876 17.7741 76.6529 17.7741 76.0148 17.1359C75.3766 16.4978 75.3766 15.4631 76.0148 14.825Z" fill="#FF6B6B"/>
<path d="M69.0825 7.89265C69.7206 7.2545 70.7553 7.25449 71.3934 7.89264C72.0316 8.5308 72.0316 9.56546 71.3934 10.2036C70.7553 10.8418 69.7206 10.8418 69.0824 10.2036C68.4443 9.56545 68.4443 8.5308 69.0825 7.89265Z" fill="#FF6B6B"/>
<path d="M148.137 69.8078C147.499 69.1697 146.464 69.1697 145.826 69.8078C145.188 70.446 145.188 71.4806 145.826 72.1188C146.464 72.7569 147.499 72.7569 148.137 72.1188C148.775 71.4806 148.775 70.446 148.137 69.8078Z" fill="#FF6B6B"/>
<path d="M138.892 62.8734C139.53 62.2353 140.565 62.2353 141.203 62.8734C141.841 63.5116 141.841 64.5462 141.203 65.1844C140.565 65.8225 139.53 65.8225 138.892 65.1844C138.254 64.5462 138.254 63.5116 138.892 62.8734Z" fill="#FF6B6B"/>
<path d="M131.959 55.9411C132.598 55.303 133.632 55.303 134.27 55.9411C134.909 56.5793 134.908 57.6139 134.27 58.2521C133.632 58.8902 132.598 58.8902 131.959 58.2521C131.321 57.6139 131.321 56.5793 131.959 55.9411Z" fill="#FF6B6B"/>
<path d="M125.027 49.0088C125.665 48.3706 126.7 48.3706 127.338 49.0088C127.976 49.6469 127.976 50.6816 127.338 51.3198C126.7 51.9579 125.665 51.9579 125.027 51.3198C124.389 50.6816 124.389 49.6469 125.027 49.0088Z" fill="#FF6B6B"/>
<path d="M118.093 42.0744C118.731 41.4363 119.765 41.4363 120.404 42.0744C121.042 42.7126 121.042 43.7472 120.404 44.3854C119.765 45.0235 118.731 45.0235 118.093 44.3854C117.455 43.7472 117.455 42.7126 118.093 42.0744Z" fill="#FF6B6B"/>
<path d="M111.16 35.1421C111.799 34.5039 112.833 34.5039 113.471 35.1421C114.109 35.7802 114.109 36.8149 113.471 37.4531C112.833 38.0912 111.799 38.0912 111.16 37.453C110.522 36.8149 110.522 35.7802 111.16 35.1421Z" fill="#FF6B6B"/>
<path d="M104.228 28.2098C104.866 27.5716 105.901 27.5716 106.539 28.2098C107.177 28.8479 107.177 29.8826 106.539 30.5207C105.901 31.1589 104.866 31.1589 104.228 30.5207C103.59 29.8826 103.59 28.8479 104.228 28.2098Z" fill="#FF6B6B"/>
<path d="M97.2957 21.2775C97.9339 20.6393 98.9685 20.6393 99.6067 21.2775C100.245 21.9156 100.245 22.9503 99.6067 23.5884C98.9685 24.2266 97.9339 24.2266 97.2957 23.5884C96.6576 22.9503 96.6576 21.9156 97.2957 21.2775Z" fill="#FF6B6B"/>
<path d="M90.3634 14.3451C91.0015 13.707 92.0362 13.707 92.6744 14.3451C93.3125 14.9833 93.3125 16.0179 92.6744 16.6561C92.0362 17.2942 91.0015 17.2942 90.3634 16.6561C89.7252 16.0179 89.7252 14.9833 90.3634 14.3451Z" fill="#FF6B6B"/>
<path d="M83.429 7.41074C84.0672 6.77259 85.1018 6.77259 85.74 7.41074C86.3781 8.0489 86.3781 9.08355 85.74 9.7217C85.1018 10.3599 84.0672 10.3599 83.429 9.7217C82.7908 9.08354 82.7909 8.04889 83.429 7.41074Z" fill="#FF6B6B"/>
<path d="M76.4967 0.478422C77.1348 -0.159734 78.1695 -0.159736 78.8076 0.478418C79.4458 1.11657 79.4458 2.15123 78.8076 2.78938C78.1695 3.42753 77.1348 3.42753 76.4967 2.78938C75.8585 2.15122 75.8585 1.11657 76.4967 0.478422Z" fill="#FF6B6B"/>
<path d="M107.265 110.68C106.627 110.042 105.592 110.042 104.954 110.68C104.316 111.318 104.316 112.353 104.954 112.991C105.592 113.629 106.627 113.629 107.265 112.991C107.903 112.353 107.903 111.318 107.265 110.68Z" fill="#FF6B6B"/>
<path d="M98.0193 103.746C98.6575 103.108 99.6921 103.108 100.33 103.746C100.968 104.384 100.968 105.419 100.33 106.057C99.6921 106.695 98.6575 106.695 98.0193 106.057C97.3812 105.419 97.3812 104.384 98.0193 103.746Z" fill="#FF6B6B"/>
<path d="M91.087 96.8135C91.7252 96.1753 92.7598 96.1753 93.398 96.8135C94.0361 97.4517 94.0361 98.4863 93.398 99.1245C92.7598 99.7626 91.7252 99.7626 91.087 99.1245C90.4488 98.4863 90.4488 97.4517 91.087 96.8135Z" fill="#FF6B6B"/>
<path d="M84.1547 89.8812C84.7928 89.243 85.8275 89.243 86.4656 89.8812C87.1038 90.5193 87.1038 91.554 86.4656 92.1921C85.8275 92.8303 84.7928 92.8303 84.1547 92.1921C83.5165 91.554 83.5165 90.5193 84.1547 89.8812Z" fill="#FF6B6B"/>
<path d="M77.2203 82.9468C77.8584 82.3086 78.8931 82.3086 79.5313 82.9468C80.1694 83.5849 80.1694 84.6196 79.5313 85.2577C78.8931 85.8959 77.8584 85.8959 77.2203 85.2577C76.5821 84.6196 76.5821 83.5849 77.2203 82.9468Z" fill="#FF6B6B"/>
<path d="M70.288 76.0145C70.9261 75.3763 71.9608 75.3763 72.5989 76.0145C73.2371 76.6526 73.2371 77.6873 72.5989 78.3254C71.9608 78.9636 70.9261 78.9636 70.288 78.3254C69.6498 77.6873 69.6498 76.6526 70.288 76.0145Z" fill="#FF6B6B"/>
<path d="M63.3557 69.0822C63.9938 68.444 65.0285 68.444 65.6666 69.0822C66.3048 69.7203 66.3048 70.755 65.6666 71.3931C65.0285 72.0313 63.9938 72.0313 63.3557 71.3931C62.7175 70.755 62.7175 69.7203 63.3557 69.0822Z" fill="#FF6B6B"/>
<path d="M56.4233 62.1498C57.0615 61.5117 58.0961 61.5117 58.7343 62.1498C59.3724 62.788 59.3724 63.8226 58.7343 64.4608C58.0961 65.0989 57.0615 65.0989 56.4233 64.4608C55.7852 63.8226 55.7852 62.788 56.4233 62.1498Z" fill="#FF6B6B"/>
<path d="M49.491 55.2175C50.1292 54.5794 51.1638 54.5794 51.802 55.2175C52.4401 55.8557 52.4401 56.8903 51.802 57.5285C51.1638 58.1666 50.1292 58.1666 49.491 57.5285C48.8529 56.8903 48.8529 55.8557 49.491 55.2175Z" fill="#FF6B6B"/>
<path d="M42.5566 48.2831C43.1948 47.645 44.2294 47.645 44.8676 48.2831C45.5057 48.9213 45.5057 49.9559 44.8676 50.5941C44.2294 51.2322 43.1948 51.2322 42.5566 50.5941C41.9185 49.9559 41.9185 48.9213 42.5566 48.2831Z" fill="#FF6B6B"/>
<path d="M35.6243 41.3508C36.2625 40.7127 37.2971 40.7126 37.9353 41.3508C38.5734 41.989 38.5734 43.0236 37.9353 43.6618C37.2971 44.2999 36.2625 44.2999 35.6243 43.6618C34.9861 43.0236 34.9861 41.989 35.6243 41.3508Z" fill="#FF6B6B"/>
</svg>
