<svg width="375" height="40" viewBox="0 0 375 40" fill="none" xmlns="http://www.w3.org/2000/svg">
<path d="M20.4709 0C20.5558 0 20.6399 0.00530312 20.7232 0.0159095L20.9755 0.0613654L21.1709 0.115913L21.1982 0.129549L21.2255 0.134095L21.2914 0.165914L21.405 0.209097L21.4414 0.229553L21.4687 0.240916L39.6511 9.3321C40.0281 9.52106 40.3451 9.81118 40.5666 10.17C40.7882 10.5289 40.9055 10.9423 40.9055 11.364C40.9055 11.7857 40.7882 12.1991 40.5666 12.5579C40.3451 12.9168 40.0281 13.2069 39.6511 13.3959L21.4687 22.487C21.1532 22.6447 20.8054 22.7267 20.4527 22.7267C20.1001 22.7267 19.7523 22.6447 19.4368 22.487C19.4368 22.487 1.63145 13.5848 1.25443 13.3959C0.877416 13.2069 0.560409 12.9168 0.33887 12.5579C0.117332 12.1991 0 11.7857 0 11.364C0 10.9423 0.117332 10.5289 0.33887 10.17C0.560409 9.81118 0.877416 9.52106 1.25443 9.3321L19.4368 0.240916L19.4618 0.229553L19.5027 0.206825L19.68 0.134095L19.705 0.129549L19.7345 0.115913L19.93 0.0613654L20.18 0.0159095L20.3073 0.0045458L20.4709 0Z" fill="#4169E1"/>
<path d="M40.6068 26.7123C40.876 27.2512 40.9202 27.8749 40.7297 28.4464C40.5392 29.0179 40.1296 29.4904 39.5909 29.7601L21.4085 38.8513C21.0931 39.0089 20.7452 39.091 20.3926 39.091C20.0399 39.091 19.6921 39.0089 19.3767 38.8513L1.19428 29.7601C0.674429 29.4797 0.284119 29.0081 0.10603 28.4449C-0.0720602 27.8818 -0.023942 27.2715 0.240192 26.7432C0.504326 26.2149 0.963728 25.8102 1.52109 25.6148C2.07845 25.4194 2.68998 25.4486 3.22616 25.6963L20.3926 34.2739L37.5613 25.6941C38.1002 25.4249 38.724 25.3807 39.2955 25.5712C39.867 25.7617 40.3395 26.1713 40.6091 26.71" fill="#A8E6CF"/>
<path d="M40.6068 18.5279C40.876 19.0668 40.9202 19.6905 40.7297 20.262C40.5392 20.8335 40.1296 21.306 39.5909 21.5757L21.4085 30.6669C21.0931 30.8245 20.7452 30.9066 20.3926 30.9066C20.0399 30.9066 19.6921 30.8245 19.3766 30.6669L1.19428 21.5757C0.674429 21.2953 0.284119 20.8237 0.106029 20.2605C-0.0720604 19.6974 -0.0239416 19.0871 0.240192 18.5588C0.504326 18.0305 0.963728 17.6258 1.52109 17.4304C2.07845 17.235 2.68998 17.2642 3.22616 17.5119L20.3903 26.0917L37.559 17.5119C38.098 17.2428 38.7217 17.1986 39.2932 17.3891C39.8647 17.5796 40.3372 17.9892 40.6068 18.5279Z" fill="#FF6B6B"/>
<path d="M71.711 8.834V13.355H65.573V32H59.93V13.355H53.792V8.834H71.711ZM94.6071 8.834V32H88.9641V22.463H80.1861V32H74.5431V8.834H80.1861V17.909H88.9641V8.834H94.6071ZM104.324 13.355V18.041H111.881V22.397H104.324V27.479H112.871V32H98.6808V8.834H112.871V13.355H104.324ZM134.483 32.231C132.305 32.231 130.303 31.725 128.477 30.713C126.673 29.701 125.232 28.293 124.154 26.489C123.098 24.663 122.57 22.617 122.57 20.351C122.57 18.085 123.098 16.05 124.154 14.246C125.232 12.442 126.673 11.034 128.477 10.022C130.303 9.01 132.305 8.504 134.483 8.504C136.661 8.504 138.652 9.01 140.456 10.022C142.282 11.034 143.712 12.442 144.746 14.246C145.802 16.05 146.33 18.085 146.33 20.351C146.33 22.617 145.802 24.663 144.746 26.489C143.69 28.293 142.26 29.701 140.456 30.713C138.652 31.725 136.661 32.231 134.483 32.231ZM134.483 27.083C136.331 27.083 137.805 26.467 138.905 25.235C140.027 24.003 140.588 22.375 140.588 20.351C140.588 18.305 140.027 16.677 138.905 15.467C137.805 14.235 136.331 13.619 134.483 13.619C132.613 13.619 131.117 14.224 129.995 15.434C128.895 16.644 128.345 18.283 128.345 20.351C128.345 22.397 128.895 24.036 129.995 25.268C131.117 26.478 132.613 27.083 134.483 27.083ZM167.125 16.292C167.125 17.634 166.817 18.866 166.201 19.988C165.585 21.088 164.639 21.979 163.363 22.661C162.087 23.343 160.503 23.684 158.611 23.684H155.113V32H149.47V8.834H158.611C160.459 8.834 162.021 9.153 163.297 9.791C164.573 10.429 165.53 11.309 166.168 12.431C166.806 13.553 167.125 14.84 167.125 16.292ZM158.182 19.196C159.26 19.196 160.063 18.943 160.591 18.437C161.119 17.931 161.383 17.216 161.383 16.292C161.383 15.368 161.119 14.653 160.591 14.147C160.063 13.641 159.26 13.388 158.182 13.388H155.113V19.196H158.182ZM175.706 13.355V18.041H183.263V22.397H175.706V27.479H184.253V32H170.063V8.834H184.253V13.355H175.706ZM208.64 32H202.997L193.559 17.711V32H187.916V8.834H193.559L202.997 23.189V8.834H208.64V32Z" fill="#4169E1"/>
<path d="M228.106 32.231C226.412 32.231 224.894 31.956 223.552 31.406C222.21 30.856 221.132 30.042 220.318 28.964C219.526 27.886 219.108 26.588 219.064 25.07H225.07C225.158 25.928 225.455 26.588 225.961 27.05C226.467 27.49 227.127 27.71 227.941 27.71C228.777 27.71 229.437 27.523 229.921 27.149C230.405 26.753 230.647 26.214 230.647 25.532C230.647 24.96 230.449 24.487 230.053 24.113C229.679 23.739 229.206 23.431 228.634 23.189C228.084 22.947 227.292 22.672 226.258 22.364C224.762 21.902 223.541 21.44 222.595 20.978C221.649 20.516 220.835 19.834 220.153 18.932C219.471 18.03 219.13 16.853 219.13 15.401C219.13 13.245 219.911 11.562 221.473 10.352C223.035 9.12 225.07 8.504 227.578 8.504C230.13 8.504 232.187 9.12 233.749 10.352C235.311 11.562 236.147 13.256 236.257 15.434H230.152C230.108 14.686 229.833 14.103 229.327 13.685C228.821 13.245 228.172 13.025 227.38 13.025C226.698 13.025 226.148 13.212 225.73 13.586C225.312 13.938 225.103 14.455 225.103 15.137C225.103 15.885 225.455 16.468 226.159 16.886C226.863 17.304 227.963 17.755 229.459 18.239C230.955 18.745 232.165 19.229 233.089 19.691C234.035 20.153 234.849 20.824 235.531 21.704C236.213 22.584 236.554 23.717 236.554 25.103C236.554 26.423 236.213 27.622 235.531 28.7C234.871 29.778 233.903 30.636 232.627 31.274C231.351 31.912 229.844 32.231 228.106 32.231ZM245.669 13.355V18.041H253.226V22.397H245.669V27.479H254.216V32H240.026V8.834H254.216V13.355H245.669ZM269.694 32L264.876 23.255H263.523V32H257.88V8.834H267.351C269.177 8.834 270.728 9.153 272.004 9.791C273.302 10.429 274.27 11.309 274.908 12.431C275.546 13.531 275.865 14.763 275.865 16.127C275.865 17.667 275.425 19.042 274.545 20.252C273.687 21.462 272.411 22.32 270.717 22.826L276.063 32H269.694ZM263.523 19.262H267.021C268.055 19.262 268.825 19.009 269.331 18.503C269.859 17.997 270.123 17.282 270.123 16.358C270.123 15.478 269.859 14.785 269.331 14.279C268.825 13.773 268.055 13.52 267.021 13.52H263.523V19.262ZM301.154 8.834L292.937 32H285.875L277.658 8.834H283.664L289.406 26.324L295.181 8.834H301.154ZM309.156 8.834V32H303.513V8.834H309.156ZM312.288 20.384C312.288 18.096 312.783 16.061 313.773 14.279C314.763 12.475 316.138 11.078 317.898 10.088C319.68 9.076 321.693 8.57 323.937 8.57C326.687 8.57 329.041 9.296 330.999 10.748C332.957 12.2 334.266 14.18 334.926 16.688H328.722C328.26 15.72 327.6 14.983 326.742 14.477C325.906 13.971 324.949 13.718 323.871 13.718C322.133 13.718 320.725 14.323 319.647 15.533C318.569 16.743 318.03 18.36 318.03 20.384C318.03 22.408 318.569 24.025 319.647 25.235C320.725 26.445 322.133 27.05 323.871 27.05C324.949 27.05 325.906 26.797 326.742 26.291C327.6 25.785 328.26 25.048 328.722 24.08H334.926C334.266 26.588 332.957 28.568 330.999 30.02C329.041 31.45 326.687 32.165 323.937 32.165C321.693 32.165 319.68 31.67 317.898 30.68C316.138 29.668 314.763 28.271 313.773 26.489C312.783 24.707 312.288 22.672 312.288 20.384ZM344.025 13.355V18.041H351.582V22.397H344.025V27.479H352.572V32H338.382V8.834H352.572V13.355H344.025ZM364.617 32.231C362.923 32.231 361.405 31.956 360.063 31.406C358.721 30.856 357.643 30.042 356.829 28.964C356.037 27.886 355.619 26.588 355.575 25.07H361.581C361.669 25.928 361.966 26.588 362.472 27.05C362.978 27.49 363.638 27.71 364.452 27.71C365.288 27.71 365.948 27.523 366.432 27.149C366.916 26.753 367.158 26.214 367.158 25.532C367.158 24.96 366.96 24.487 366.564 24.113C366.19 23.739 365.717 23.431 365.145 23.189C364.595 22.947 363.803 22.672 362.769 22.364C361.273 21.902 360.052 21.44 359.106 20.978C358.16 20.516 357.346 19.834 356.664 18.932C355.982 18.03 355.641 16.853 355.641 15.401C355.641 13.245 356.422 11.562 357.984 10.352C359.546 9.12 361.581 8.504 364.089 8.504C366.641 8.504 368.698 9.12 370.26 10.352C371.822 11.562 372.658 13.256 372.768 15.434H366.663C366.619 14.686 366.344 14.103 365.838 13.685C365.332 13.245 364.683 13.025 363.891 13.025C363.209 13.025 362.659 13.212 362.241 13.586C361.823 13.938 361.614 14.455 361.614 15.137C361.614 15.885 361.966 16.468 362.67 16.886C363.374 17.304 364.474 17.755 365.97 18.239C367.466 18.745 368.676 19.229 369.6 19.691C370.546 20.153 371.36 20.824 372.042 21.704C372.724 22.584 373.065 23.717 373.065 25.103C373.065 26.423 372.724 27.622 372.042 28.7C371.382 29.778 370.414 30.636 369.138 31.274C367.862 31.912 366.355 32.231 364.617 32.231Z" fill="#FF6B6B"/>
</svg>
