<svg width="235" height="236" viewBox="0 0 235 236" fill="none" xmlns="http://www.w3.org/2000/svg">
<mask id="mask0_347_1778" style="mask-type:luminance" maskUnits="userSpaceOnUse" x="0" y="0" width="235" height="236">
<path d="M235 0.447144H0V235.447H235V0.447144Z" fill="white"/>
</mask>
<g mask="url(#mask0_347_1778)">
<path d="M60.169 100.483C60.3487 100.461 60.5142 100.374 60.6342 100.238C60.7541 100.102 60.8204 99.9274 60.8204 99.7463C60.8204 99.5652 60.7541 99.3904 60.6342 99.2547C60.5142 99.119 60.3487 99.0319 60.169 99.0098C59.9892 99.0319 59.8238 99.119 59.7038 99.2547C59.5838 99.3904 59.5176 99.5652 59.5176 99.7463C59.5176 99.9274 59.5838 100.102 59.7038 100.238C59.8238 100.374 59.9892 100.461 60.169 100.483Z" fill="#F56B0C"/>
<path d="M228.987 166.05C229.678 166.013 227.848 178.772 227.627 179.952C226.897 183.91 225.219 190.335 220.906 191.083C213.919 192.298 209.708 186.445 207.603 181.203C207.046 179.815 204.548 167.276 206.533 167.147L228.987 166.05Z" fill="#F56B0C"/>
<path d="M26.5059 189.141C28.0952 184.077 31.1835 179.401 31.4308 174.115C31.5108 173.591 31.4758 173.055 31.3282 172.546C31.1806 172.036 30.924 171.565 30.5762 171.164C29.1316 170.018 26.7916 170.619 25.4422 171.837C25.4796 175.55 24.5309 179.207 22.6928 182.433C22.6406 184.49 22.6225 186.547 22.6383 188.605C21.4151 188.653 20.1932 188.812 19.4115 188.91C22.1325 181.51 24.2858 173.926 24.4033 166.086C24.4428 163.547 23.7651 161 21.2692 160.538C20.6711 160.521 20.0764 160.632 19.5243 160.863C18.9723 161.093 18.4756 161.439 18.0671 161.876C15.8337 163.972 14.3104 166.713 13.7098 169.716C12.6596 176.297 12.6701 183.004 13.7407 189.582L10.896 189.918C11.3034 187.763 11.6744 185.604 12.0092 183.441C10.316 177.33 11.5318 170.331 14.1909 164.614C14.8094 156.409 14.9947 148.176 14.7462 139.951C14.5187 132.484 13.7691 124.554 9.24735 118.564C7.30803 115.996 5.38726 116.284 3.85114 119.144C-1.16538 128.488 -0.217981 139.768 0.850626 150.312C2.21112 163.755 3.63098 177.449 8.47682 190.079C7.01348 190.092 5.56452 190.369 4.19992 190.898C3.12513 191.545 3.44546 194.052 7.85965 194.895C11.8908 195.669 16.0255 195.74 20.0806 195.103C21.9148 194.812 28.5874 193.831 27.7006 190.488C27.6178 190.187 27.467 189.909 27.2599 189.676C27.0528 189.442 26.7948 189.26 26.5059 189.141Z" fill="#F56B0C"/>
<path d="M54.3015 182.537C53.3293 180.924 52.6376 179.158 52.2558 177.314C51.3195 173.884 50.7641 170.361 50.5997 166.81C48.3016 166.738 46.0309 166.29 43.8776 165.484C38.0201 163.295 36.1018 157.772 34.9726 151.985C33.8755 146.387 33.5305 138.921 36.8661 133.971C36.2203 132.605 35.4762 131.288 34.6399 130.03C31.7062 134.124 30.8367 147.974 30.7785 152.982C30.6013 163.136 33.0447 173.165 37.8729 182.099C38.7829 183.8 39.9563 185.347 41.3496 186.682C43.1521 188.114 45.2334 189.155 47.4607 189.738C53.6823 190.783 59.9594 191.467 66.2603 191.785C63.6874 191.273 61.2682 190.172 59.1931 188.567C57.118 186.963 55.4436 184.898 54.3015 182.537ZM54.0146 187.156C42.7781 183.351 39.2507 177.77 38.1203 166.142C38.1203 165.842 38.5779 165.781 38.6336 166.069C39.5451 170.769 40.1103 175.622 43.1492 179.512C45.9827 183.137 50.1644 184.815 54.1852 186.741C54.4252 186.826 54.2533 187.237 54.0158 187.156H54.0146Z" fill="#F56B0C"/>
<path d="M55.5683 49.2145C55.4597 50.309 55.5485 51.4141 55.8305 52.4771C56.0469 53.728 56.339 54.9645 56.7049 56.1801C56.7736 56.3132 56.8862 56.4184 57.0236 56.4779C57.161 56.5373 57.3148 56.5472 57.4587 56.5061C57.6027 56.465 57.728 56.3754 57.8133 56.2523C57.8987 56.1293 57.9388 55.9807 57.9269 55.8314C57.6214 53.5953 56.5577 51.5026 56.5664 49.2145C56.5738 48.5355 55.6363 48.5775 55.5683 49.2145Z" fill="#4B187A"/>
<path d="M62.3136 30.0094C61.5913 28.6922 59.5568 29.135 58.7936 30.169C58.5067 30.5586 59.0497 30.9976 59.4046 30.78C59.7137 30.5565 60.0849 30.4352 60.4663 30.433C60.8477 30.4308 61.2203 30.5478 61.5319 30.7676C61.6387 30.8268 61.7617 30.8501 61.8827 30.834C62.0037 30.818 62.1164 30.7634 62.204 30.6784C62.2916 30.5934 62.3496 30.4825 62.3693 30.362C62.3891 30.2416 62.3695 30.1179 62.3136 30.0094Z" fill="#4B187A"/>
<path d="M51.5905 30.6276C51.4483 31.0159 51.9207 31.3004 52.2448 31.1346C52.6124 30.8894 53.0384 30.7456 53.4795 30.7178C53.9206 30.69 54.3612 30.7792 54.7567 30.9763C54.8443 30.9959 54.9359 30.9871 55.0181 30.9511C55.1003 30.915 55.1688 30.8538 55.2138 30.7761C55.2588 30.6984 55.2778 30.6084 55.2681 30.5192C55.2584 30.43 55.2205 30.3462 55.1599 30.28C54.1173 29.1582 52.0988 29.2485 51.5905 30.6276Z" fill="#4B187A"/>
<path d="M53.8639 40.7135C53.8314 40.6586 53.7884 40.6105 53.7373 40.5722C53.6863 40.5338 53.6282 40.5059 53.5663 40.49C53.5045 40.474 53.4401 40.4705 53.3769 40.4795C53.3137 40.4884 53.2528 40.5098 53.1978 40.5422C53.1429 40.5747 53.0948 40.6177 53.0565 40.6688C53.0181 40.7198 52.9902 40.7779 52.9743 40.8398C52.9584 40.9016 52.9548 40.966 52.9638 41.0292C52.9727 41.0924 52.9941 41.1533 53.0266 41.2083C53.2165 41.6079 53.4874 41.9636 53.8221 42.253C54.1568 42.5423 54.548 42.759 54.9708 42.8891C55.8267 43.1661 57.0029 43.4617 57.677 42.6999C57.9701 42.3696 57.8007 41.6993 57.28 41.7463C56.1495 41.8415 54.5367 41.8242 53.8639 40.7135Z" fill="#4B187A"/>
<path d="M82.254 92.0257C76.7539 95.1907 72.2915 87.2788 71.2538 82.9883C71.1066 82.3773 70.1617 82.6271 70.2891 83.2567C71.3305 88.4414 76.5647 96.5722 82.8279 93.0337C82.9138 92.9383 82.9675 92.8182 82.9813 92.6906C82.9951 92.5629 82.9684 92.4341 82.9048 92.3225C82.8413 92.2109 82.7442 92.1222 82.6274 92.0689C82.5106 92.0156 82.3799 92.0005 82.254 92.0257Z" fill="#4B187A"/>
<path d="M88.5843 72.52C88.3246 68.1034 94.3714 66.1591 97.7503 67.0211C97.8648 67.0424 97.983 67.02 98.0817 66.9583C98.1804 66.8967 98.2524 66.8002 98.2835 66.6881C98.3145 66.5759 98.3024 66.4562 98.2495 66.3525C98.1966 66.2489 98.1068 66.1688 97.9977 66.1282C93.8853 64.5376 87.2374 67.5258 87.3611 72.5138C87.3747 73.3264 88.6313 73.3215 88.5843 72.52Z" fill="#4B187A"/>
<path d="M90.9003 82.1692C91.7426 82.2818 92.1223 81.0561 91.2713 80.8483C90.459 80.7734 89.6821 80.4802 89.0228 79.9999C88.5919 79.409 88.3763 78.6884 88.4118 77.9579C88.3235 77.1943 88.3929 76.4208 88.6156 75.6851C88.8384 74.9495 89.2097 74.2673 89.7068 73.681C90.0716 73.2592 89.572 72.4664 89.0958 72.8499C88.2693 73.561 87.6461 74.4786 87.2897 75.5092C86.9334 76.5397 86.8567 77.6462 87.0674 78.7161C87.337 80.977 88.8088 81.8885 90.9003 82.1692Z" fill="#4B187A"/>
<path d="M96.5278 78.8806C97.7782 74.7991 95.1129 70.7176 93.0511 71.1691C92.5007 71.2928 92.6108 72.2352 93.1847 72.166C93.9614 72.0707 95.0881 74.2487 95.2081 74.7014C95.5364 75.956 95.5572 77.2712 95.2687 78.5356C95.2359 78.6981 95.266 78.867 95.3529 79.0082C95.4399 79.1494 95.5772 79.2523 95.7371 79.2961C95.897 79.3399 96.0676 79.3214 96.2144 79.2443C96.3611 79.1671 96.4731 79.0372 96.5278 78.8806Z" fill="#4B187A"/>
<path d="M99.3448 75.7094C100.884 74.0781 99.7766 71.0677 98.4792 69.6664C98.0265 69.1778 97.3734 69.8791 97.7643 70.3812C98.3551 71.1445 98.7001 72.0692 98.7537 73.033C98.8007 73.8455 98.4791 74.5555 98.4605 75.3433C98.4644 75.444 98.4971 75.5414 98.5547 75.624C98.6123 75.7066 98.6925 75.771 98.7855 75.8095C98.8786 75.848 98.9808 75.8591 99.0799 75.8413C99.179 75.8236 99.2709 75.7778 99.3448 75.7094Z" fill="#4B187A"/>
<path d="M102.626 73.7789C103.368 71.8828 102.369 69.544 101.122 68.1019C100.652 67.5577 99.9075 68.3282 100.346 68.8786C101.527 70.3628 101.421 71.847 101.379 73.6082C101.361 74.3898 102.385 74.3911 102.626 73.7789Z" fill="#4B187A"/>
<path d="M110.112 54.7386C110.905 54.6477 111.647 54.3 112.224 53.7485C112.801 53.1969 113.181 52.4718 113.308 51.6836C113.362 51.017 112.288 50.7053 112.012 51.3287C111.857 51.8656 111.578 52.3584 111.197 52.7667C110.816 53.1751 110.344 53.4877 109.819 53.6786C109.698 53.7333 109.601 53.8295 109.544 53.9496C109.488 54.0698 109.477 54.206 109.512 54.3339C109.547 54.4618 109.627 54.5729 109.737 54.6471C109.847 54.7213 109.98 54.7537 110.112 54.7386Z" fill="#4B187A"/>
<path d="M109.794 46.6421C109.961 46.6421 110.124 46.5926 110.263 46.4999C110.402 46.4072 110.51 46.2755 110.573 46.1214C110.637 45.9672 110.654 45.7976 110.621 45.634C110.589 45.4704 110.509 45.3201 110.391 45.2021C110.273 45.0841 110.122 45.0038 109.959 44.9713C109.795 44.9387 109.626 44.9554 109.471 45.0193C109.317 45.0831 109.186 45.1912 109.093 45.3299C109 45.4686 108.951 45.6317 108.951 45.7986C108.951 46.0223 109.04 46.2368 109.198 46.395C109.356 46.5532 109.57 46.6421 109.794 46.6421Z" fill="#4B187A"/>
<path d="M104.516 46.6479C104.716 46.6286 104.901 46.5356 105.036 46.387C105.171 46.2384 105.246 46.0447 105.246 45.8439C105.246 45.6431 105.171 45.4495 105.036 45.3009C104.901 45.1522 104.716 45.0592 104.516 45.04C104.316 45.0592 104.13 45.1522 103.995 45.3009C103.86 45.4495 103.785 45.6431 103.785 45.8439C103.785 46.0447 103.86 46.2384 103.995 46.387C104.13 46.5356 104.316 46.6286 104.516 46.6479Z" fill="#4B187A"/>
<path d="M111.891 43.9715C112.361 44.1607 112.621 43.5077 112.342 43.1947C111.783 42.7139 111.077 42.4384 110.34 42.4139C109.604 42.3893 108.881 42.6173 108.291 43.0599C107.763 43.5411 108.56 44.3376 109.073 43.8428C109.508 43.6 110.002 43.4834 110.5 43.5061C110.998 43.5289 111.479 43.69 111.891 43.9715Z" fill="#4B187A"/>
<path d="M106.125 43.226C105.624 42.8935 105.034 42.7202 104.433 42.7288C103.832 42.7374 103.248 42.9276 102.757 43.2742C102.677 43.3581 102.633 43.47 102.635 43.5857C102.637 43.7015 102.685 43.8117 102.768 43.8927C103.078 44.192 103.517 43.8444 104.358 43.8209C104.834 43.8531 105.305 43.9361 105.763 44.0683C105.87 44.0936 105.982 44.0805 106.08 44.0313C106.178 43.9821 106.255 43.8998 106.298 43.7991C106.342 43.6984 106.348 43.5857 106.316 43.4809C106.284 43.376 106.216 43.2857 106.125 43.226Z" fill="#4B187A"/>
<path d="M107.485 50.8585C107.551 50.8195 107.604 50.7619 107.638 50.6929C107.672 50.6239 107.684 50.5466 107.674 50.4705C107.665 50.3943 107.633 50.3228 107.582 50.2647C107.532 50.2066 107.466 50.1645 107.392 50.1436C107.167 50.1065 106.959 50.1436 106.739 50.0941C105.663 49.9705 106.451 48.9427 106.752 47.6811C106.755 47.6087 106.736 47.5369 106.697 47.4758C106.658 47.4146 106.601 47.3671 106.534 47.3399C106.467 47.3127 106.393 47.3071 106.322 47.3239C106.252 47.3408 106.188 47.3791 106.141 47.4338C105.843 47.8476 105.633 48.3176 105.522 48.8153C105.307 49.2486 105.251 49.7437 105.364 50.2141C105.46 50.3967 105.591 50.5584 105.75 50.6898C105.909 50.8213 106.092 50.9198 106.29 50.9798C106.487 51.0397 106.694 51.0599 106.9 51.0391C107.105 51.0182 107.304 50.9569 107.485 50.8585Z" fill="#4B187A"/>
<path d="M68.4857 80.7449C67.6059 85.919 67.814 91.2197 69.0967 96.3089C69.2439 96.8469 70.0144 96.6132 69.9216 96.0826C69.0736 91.0531 68.8683 85.9362 69.3107 80.8549C69.3465 80.4097 68.5525 80.2996 68.4857 80.7449Z" fill="#4B187A"/>
<path d="M45.1613 38.4779C45.7104 38.7166 46.382 38.583 46.8532 39.0889C47.463 39.7444 47.2651 43.6651 47.275 44.845C47.2946 47.8905 47.0413 50.9316 46.5181 53.9319C46.3944 54.6579 47.5075 54.9708 47.6312 54.2374C48.5528 48.9024 48.6167 43.4545 47.8204 38.0994C47.797 38.019 47.7558 37.9449 47.6998 37.8826C47.6438 37.8203 47.5744 37.7715 47.4969 37.7397C47.4194 37.708 47.3357 37.6942 47.2521 37.6993C47.1685 37.7044 47.0871 37.7283 47.014 37.7692C45.3406 38.6931 45.071 34.9888 46.262 33.8398C46.6048 33.6565 46.9865 33.5581 47.3752 33.5529C47.7673 33.6744 48.1268 33.8833 48.4265 34.1639C48.7493 34.4582 49.3504 34.0711 49.0746 33.663C48.8902 33.3903 48.6678 33.1454 48.4141 32.9357C48.2525 31.8212 48.3169 30.6855 48.6033 29.5963C48.8369 27.59 49.3858 25.6332 50.2297 23.7981C50.461 23.2972 51.1784 23.6683 51.072 24.1581C51.0028 24.4809 50.9483 24.8123 50.8704 25.1475C51.7503 24.307 52.9062 23.8159 54.122 23.766C59.1929 23.51 62.1081 24.6454 63.3981 27.4319C63.3981 31.6 64.1649 35.8274 62.5323 39.8124C60.5126 44.7362 55.5518 47.566 50.5006 45.0243C50.0776 44.8128 49.5408 45.3954 49.9626 45.7281C55.5926 50.1917 64.1266 45.7429 64.7809 36.452C68.1066 34.102 80.5465 23.9614 66.2242 11.8419C49.8649 -2.00305 35.3039 12.6916 33.6787 21.6127C32.0857 30.3941 33.581 36.9863 45.1613 38.4779Z" fill="#4B187A"/>
<path d="M125.711 37.8008C126.563 36.7557 127.078 35.4764 127.187 34.1322C127.296 32.788 126.995 31.4424 126.322 30.2735C124.662 27.3052 122.192 28.0473 120.774 28.8191C120.097 29.9469 119.774 31.2511 119.845 32.5641C119.855 32.6451 119.833 32.7271 119.784 32.7919C119.734 32.8567 119.66 32.8992 119.579 32.9098C119.498 32.9205 119.416 32.8985 119.352 32.8488C119.287 32.799 119.244 32.7255 119.234 32.6445C119.051 31.9715 119.011 31.2676 119.116 30.5781C119.221 29.8886 119.469 29.2288 119.845 28.641C120.36 23.3152 111.821 20.6153 108.584 25.9645C107.875 24.0709 103.872 24.7858 103.872 24.7858C100.419 25.1284 100.59 29.1307 100.889 31.1096C101.854 32.0666 102.509 33.2905 102.772 34.6234C102.791 34.7037 102.779 34.7885 102.737 34.8597C102.695 34.9309 102.627 34.9829 102.547 35.0045C102.467 35.0262 102.382 35.0157 102.31 34.9755C102.238 34.9353 102.184 34.8684 102.161 34.7892C101.806 33.8602 101.336 32.9794 100.762 32.1671C99.8818 32.0941 97.3203 32.2364 95.1102 35.8343C92.3756 40.2868 96.5647 43.8736 96.5647 43.8736C94.1937 48.383 99.8026 49.4392 101.531 49.6532C101.681 50.3247 101.885 50.9828 102.142 51.621C103.885 55.9387 106.665 59.1148 111.015 57.5577C110.965 57.6159 110.93 57.6849 110.911 57.7593C110.648 59.5015 110.56 61.2658 110.649 63.0256C110.684 63.644 111.69 63.8765 111.809 63.179C112.084 61.3849 112.117 59.5621 111.907 57.7593C111.899 57.6692 111.867 57.5831 111.813 57.5107C111.759 57.4383 111.686 57.3825 111.601 57.3499C115.559 55.8187 117.197 52.6957 115.93 52.4274C115.824 52.4053 115.714 52.4153 115.613 52.456C115.513 52.4968 115.427 52.5664 115.366 52.6562C113.977 54.6907 111.497 56.8947 108.901 56.891C106.14 56.891 104.409 54.2517 103.328 52.039C101.713 48.7342 101.922 45.6076 102.463 42.3535C102.839 41.9019 103.316 41.5459 103.856 41.3146C104.141 41.5171 104.469 41.6504 104.814 41.7039C105.16 41.7575 105.513 41.7298 105.845 41.6231C106.178 41.5163 106.481 41.3335 106.731 41.0891C106.981 40.8447 107.17 40.5454 107.284 40.2151C108.738 41.2354 110.645 37.7711 110.645 37.7711C111.103 41.2342 116.087 39.4569 116.087 39.4569C118.012 39.8848 117.26 43.6497 116.998 44.7554C116.802 44.9143 116.628 45.0972 116.478 45.2996C116.18 45.7053 116.765 46.2705 117.174 45.9897C120.318 43.8389 120.334 47.9513 118.012 48.3298C117.879 48.3667 117.764 48.447 117.683 48.5578C117.602 48.6687 117.56 48.8036 117.565 48.9408C117.546 52.9384 117.908 56.9287 118.647 60.8575C118.672 60.9517 118.729 61.0338 118.81 61.0882C118.89 61.1427 118.988 61.1657 119.084 61.1529C119.181 61.1401 119.269 61.0923 119.333 61.0187C119.396 60.9451 119.431 60.8508 119.429 60.7536C119.377 57.9782 118.916 55.204 118.861 52.4236C120.31 54.9356 123.793 54.3308 126.267 52.8454C129.322 51.0124 125.253 46.414 125.253 46.414C125.253 46.414 129.501 47.3849 130.361 43.5545C131.222 39.724 125.711 37.8008 125.711 37.8008Z" fill="#4B187A"/>
<path d="M48.117 130.045C45.8499 128.364 44.0373 126.144 42.8433 123.587C42.8143 123.487 42.7471 123.403 42.6563 123.353C42.5655 123.302 42.4585 123.29 42.3586 123.318C42.2587 123.346 42.174 123.413 42.123 123.503C42.072 123.594 42.0588 123.701 42.0863 123.801C42.4155 125.336 43.0673 126.784 43.9985 128.048C44.9297 129.312 46.1189 130.364 47.4875 131.134C47.6318 131.217 47.8034 131.24 47.9645 131.197C48.1256 131.154 48.263 131.049 48.3465 130.904C48.4299 130.76 48.4527 130.588 48.4096 130.427C48.3666 130.266 48.2614 130.129 48.117 130.045Z" fill="#4B187A"/>
<path d="M46.5195 132.618C43.5969 129.834 42.3724 129.849 40.5914 126.805C40.535 126.712 40.4471 126.643 40.3437 126.609C40.2403 126.576 40.1284 126.581 40.0284 126.623C39.9284 126.665 39.8469 126.742 39.7988 126.84C39.7507 126.937 39.7392 127.048 39.7665 127.153C40.5741 129.951 43.4856 131.977 45.7242 133.654C46.3426 134.114 46.9895 133.143 46.5195 132.618Z" fill="#4B187A"/>
<path d="M41.1464 132.815C40.1944 131.926 39.4364 130.85 38.9201 129.655C38.8797 129.539 38.7968 129.443 38.6884 129.386C38.5799 129.33 38.4539 129.316 38.3359 129.349C38.2179 129.382 38.1168 129.458 38.053 129.563C37.9893 129.667 37.9676 129.792 37.9925 129.912C38.3941 131.439 39.2456 132.81 40.4364 133.847C40.8911 134.454 41.4639 134.962 42.1203 135.341C42.7767 135.72 43.5032 135.962 44.2557 136.053C44.3849 136.03 44.5035 135.967 44.5943 135.872C44.6852 135.778 44.7437 135.657 44.7613 135.527C44.7789 135.397 44.7548 135.265 44.6924 135.149C44.6299 135.034 44.5325 134.941 44.414 134.885C43.1652 134.487 42.0399 133.774 41.1464 132.815Z" fill="#4B187A"/>
<path d="M51.1812 154.867C55.4939 153.003 60.5549 152.641 65.1633 152.466C68.7139 152.177 72.2868 152.592 75.6763 153.688C75.6707 153.809 75.7036 153.929 75.7703 154.03C75.8369 154.132 75.9339 154.209 76.0473 154.252C76.1608 154.295 76.2848 154.3 76.4017 154.268C76.5185 154.236 76.6221 154.168 76.6978 154.073C77.9908 154.636 79.2063 155.363 80.3143 156.236C80.3776 156.293 80.452 156.337 80.5329 156.364C80.6138 156.391 80.6996 156.401 80.7845 156.393C80.8694 156.386 80.952 156.361 81.0268 156.319C81.1016 156.278 81.1671 156.222 81.2191 156.155C81.2711 156.087 81.3086 156.009 81.3292 155.926C81.3498 155.844 81.353 155.758 81.3386 155.673C81.3243 155.589 81.2927 155.509 81.2458 155.438C81.1989 155.366 81.1378 155.306 81.0662 155.259C79.7421 154.263 78.2779 153.468 76.7213 152.899C76.1089 149.835 75.1068 146.861 73.7394 144.051C73.5304 143.618 72.7871 143.927 72.9578 144.375C73.9411 146.993 74.7431 149.676 75.3583 152.405C72.1679 151.585 68.8694 151.268 65.5813 151.463C61.7037 151.526 57.8453 152.023 54.0789 152.947C54.1044 152.776 54.07 152.601 53.9813 152.453C52.7891 150.099 51.8922 147.606 51.311 145.032C51.2772 144.937 51.2116 144.858 51.1255 144.806C51.0393 144.754 50.9379 144.734 50.8386 144.749C50.7393 144.764 50.6481 144.812 50.5807 144.887C50.5132 144.961 50.4737 145.057 50.4688 145.157C50.7494 147.885 51.4459 150.555 52.5343 153.072C52.7631 153.691 53.2034 153.04 50.7619 154.186C50.3451 154.44 50.7384 155.059 51.1812 154.867Z" fill="#4B187A"/>
<path d="M41.844 187.755C41.7722 187.278 41.045 187.419 41.0314 187.859C40.8768 193.054 41.4235 198.326 41.6918 203.521C41.9491 208.513 41.8934 213.597 42.3634 218.572C41.985 218.572 41.5991 218.604 41.2268 218.607C40.4868 218.614 39.7486 218.684 39.0203 218.815C38.9102 218.848 38.8134 218.915 38.7446 219.007C38.6758 219.099 38.6387 219.211 38.6387 219.325C38.6387 219.44 38.6758 219.552 38.7446 219.644C38.8134 219.736 38.9102 219.803 39.0203 219.836C40.4263 220.085 41.8606 220.132 43.2799 219.977C43.3777 219.983 43.4758 219.97 43.5685 219.938C43.6612 219.906 43.7467 219.857 43.8201 219.792C43.8934 219.727 43.9532 219.648 43.9959 219.56C44.0387 219.471 44.0635 219.376 44.069 219.278C44.2137 216.892 43.1748 206.457 42.9435 202.806C42.6281 197.825 42.591 192.709 41.844 187.755Z" fill="#4B187A"/>
<path d="M82.5466 194.598C82.5466 194.404 82.4693 194.217 82.3318 194.08C82.1942 193.942 82.0077 193.865 81.8132 193.865C81.6186 193.865 81.4321 193.942 81.2946 194.08C81.157 194.217 81.0797 194.404 81.0797 194.598C81.0562 214.898 80.3377 216.366 81.0612 220.667L79.4298 220.85C78.8051 220.848 78.1913 221.013 77.6513 221.327C77.3891 221.523 77.2802 222.015 77.6513 222.193C78.7409 222.699 80.3438 222.252 81.5015 222.145C81.6275 222.134 81.7491 222.093 81.8556 222.025C81.9621 221.957 82.0503 221.864 82.1125 221.754C82.1925 221.723 82.2637 221.673 82.3202 221.608C82.3766 221.544 82.4165 221.466 82.4365 221.383C83.353 217.34 82.7284 212.798 82.6839 208.661C82.6245 203.936 82.5639 199.28 82.5466 194.598Z" fill="#4B187A"/>
<path d="M68.7244 194.434C68.1364 198.443 68.0582 202.51 68.4918 206.539C67.9971 206.539 67.4652 206.594 67.0076 206.613C66.2678 206.581 65.5287 206.685 64.826 206.918C64.3312 207.126 64.5625 207.798 64.9608 207.945C65.7343 208.133 66.5353 208.18 67.3256 208.085C68.074 208.167 68.8312 208.083 69.5431 207.837C69.6062 207.807 69.6626 207.765 69.7087 207.712C69.7549 207.66 69.7899 207.598 69.8116 207.532C69.887 207.483 69.9515 207.42 70.0011 207.345C70.0507 207.27 70.0844 207.186 70.0997 207.098C70.6384 202.89 70.5847 198.629 69.9402 194.436C69.9253 194.286 69.8549 194.146 69.7428 194.044C69.6306 193.942 69.4848 193.886 69.3334 193.886C69.182 193.885 69.0359 193.941 68.9233 194.042C68.8108 194.144 68.7399 194.283 68.7244 194.434Z" fill="#4B187A"/>
<path d="M108.773 190.767C109.684 188.61 110.729 186.452 109.768 184.124C107.896 179.588 100.596 177.8 96.4359 176.332C89.9136 173.986 83.2099 172.179 76.3921 170.93C75.8973 170.842 75.6834 171.589 76.1843 171.688C81.4822 172.74 86.709 174.124 91.8337 175.831C96.8885 177.502 106.115 179.424 108.418 184.685C109.947 188.174 106.586 193.118 105.078 196.454C100.969 205.955 96.0545 215.087 90.3878 223.75C89.603 223.776 88.8351 223.985 88.1455 224.361C88.4089 211.615 89.3007 199.308 96.1625 188.382L96.4099 188.327C96.4851 188.31 96.555 188.274 96.6132 188.224C96.6714 188.173 96.7161 188.109 96.7434 188.037C96.7706 187.965 96.7795 187.887 96.7692 187.811C96.7589 187.734 96.7298 187.662 96.6845 187.599C97.0271 187.086 97.3573 186.574 97.7234 186.066C97.9708 185.718 97.408 185.285 97.1124 185.608C96.5648 186.206 96.0507 186.834 95.5726 187.489C85.845 189.727 75.1083 192.848 65.288 189.671C55.2191 186.408 53.0311 176.138 51.4567 166.8C55.4255 166.663 59.3461 165.885 63.0666 164.497C70.3539 162.063 80.3721 158.662 87.6013 162.749C87.7087 162.798 87.8301 162.804 87.9422 162.768C88.0542 162.732 88.149 162.656 88.2082 162.554C88.2673 162.453 88.2867 162.333 88.2626 162.217C88.2385 162.102 88.1725 162 88.0775 161.93C84.2285 159.118 79.0401 159.749 74.5789 160.397C63.7358 161.976 55.3737 168.613 44.1595 164.45C39.5288 162.731 37.8975 159.249 36.6372 154.771C34.6712 148.211 34.929 141.186 37.3706 134.789C38.1952 136.045 39.3508 137.05 40.71 137.691C41.2715 137.956 41.7675 137.136 41.2047 136.848C37.0923 134.745 36.2364 129.485 33.4202 126.063C35.457 125.284 37.3475 124.166 39.0118 122.757C40.6741 121.527 41.7551 119.891 43.4236 118.858C43.9073 119.638 44.3479 120.444 44.7432 121.273C44.8356 121.428 44.9853 121.541 45.1602 121.588C45.335 121.634 45.5211 121.61 45.6783 121.52C46.6677 120.949 49.0671 121.238 49.4357 122.547C49.4859 122.727 49.6057 122.88 49.7688 122.972C49.9318 123.064 50.1248 123.088 50.3052 123.038C50.4856 122.987 50.6387 122.868 50.7308 122.705C50.8229 122.542 50.8464 122.349 50.7962 122.168C50.6126 121.579 50.2357 121.069 49.7264 120.72C49.8893 120.657 50.0452 120.577 50.1914 120.481C51.2971 122.657 53.2463 125.823 55.9908 125.639C58.8813 125.444 59.8707 122.621 60.0476 120.14C66.2316 120.818 72.3662 121.918 76.3203 127.197C80.5181 132.801 80.7592 139.416 82.1618 146.018C82.2917 146.629 83.3479 146.501 83.2688 145.866C82.2991 138.184 81.4333 131.202 76.2535 125.15C72.7138 121.014 65.4438 118.642 59.9993 119.119C59.8831 118.392 59.7297 117.671 59.6691 116.938C59.6085 116.204 59.6196 115.392 59.5454 114.621C59.496 114.097 58.6289 113.869 58.5374 114.488C58.2937 116.189 58.3309 117.919 58.6475 119.608C58.4335 121.539 57.8893 125.109 54.9803 124.142C53.1474 123.532 51.9254 121.297 50.9421 119.73C53.1412 116.724 51.9563 108.485 51.0584 104.1C50.9115 103.421 51.007 102.713 51.3284 102.097C51.6497 101.482 52.1765 100.999 52.8172 100.732C57.1732 98.9722 61.3301 93.6626 61.3301 93.6626C61.7086 96.3452 64.2985 97.3285 65.4735 97.6204C65.668 100.214 65.668 102.818 65.4735 105.412C65.2422 108.184 64.4679 111.081 61.4279 112.024C60.364 112.352 59.2398 112.437 58.1387 112.272C57.0376 112.107 55.9877 111.696 55.0669 111.07C54.9649 110.968 54.8265 110.911 54.6821 110.91C54.5377 110.91 54.3992 110.968 54.297 111.07C54.1948 111.172 54.1374 111.31 54.1372 111.454C54.1371 111.599 54.1944 111.737 54.2964 111.84C56.8084 114.484 62.6362 114.001 64.8984 111.332C68.0028 107.671 67.1246 100.591 66.3714 96.1968C66.5135 95.279 66.457 94.3414 66.2057 93.4474C65.6108 91.3534 64.1773 83.9919 52.5859 83.9239C42.5516 83.8596 36.5568 93.8704 35.1307 96.5592C34.398 95.2773 33.7051 93.9731 33.0529 92.6484C32.8315 92.1908 32.1871 92.5915 32.3813 93.0454C34.0794 97.2084 36.1513 101.208 38.5715 104.997C41.1314 108.692 43.1214 112.75 44.4748 117.035C42.8663 117.519 41.4617 118.519 40.4775 119.88C38.3759 122.255 35.7652 124.124 32.8401 125.349C26.7924 120.63 22.4903 114.03 20.6142 106.592C15.2341 85.3685 19.323 74.6577 28.1365 65.4867C38.8127 54.3838 44.2584 58.3132 45.3443 58.0856C46.1569 60.2983 48.7654 61.1505 50.9657 61.3496C54.5091 61.6687 56.791 59.8654 59.136 57.3831C59.2036 57.312 59.2558 57.2278 59.2894 57.1357C69.5921 59.2012 77.6709 65.0786 83.7932 73.4815C84.2025 74.043 85.145 73.4815 84.7331 72.9311C78.5552 64.6135 69.7875 57.5612 59.1793 56.2774C59.1175 56.2753 59.0568 56.2945 59.0074 56.3318C58.8838 56.2305 58.7257 56.181 58.5664 56.1937C58.4071 56.2064 58.2588 56.2803 58.1528 56.3998C56.4707 58.2662 54.8257 60.0052 52.1085 60.1573C50.9326 60.2385 49.7553 60.0201 48.6868 59.5226C47.6183 59.0251 46.6934 58.2647 45.9986 57.3126L45.9491 57.2755C45.9415 57.1373 45.8918 57.0047 45.8067 56.8955C45.7216 56.7863 45.6052 56.7057 45.473 56.6645C33.3361 52.8217 20.9135 69.0079 18.1579 79.0607C15.7511 87.8421 16.9928 97.6377 19.1721 106.344C20.8264 113.388 24.7279 119.703 30.2874 124.334C30.1637 126.295 29.314 133.423 22.9976 136.677C15.6633 140.456 20.1764 149.844 23.8411 151.838C25.9587 152.999 28.3842 153.474 30.7833 153.199C30.7833 153.199 31.0888 134.867 34.6508 129.923L34.5902 129.776C35.4171 131.099 36.1754 132.463 36.8623 133.863C33.5229 138.811 33.8704 146.28 34.9675 151.878C36.1016 157.665 38.0249 163.188 43.8725 165.376C46.0257 166.182 48.2965 166.63 50.5946 166.702C51.1326 175.826 53.5753 186.785 62.6882 190.601C73.0774 194.95 84.3077 191.121 94.7315 188.72C87.5766 199.162 87.3997 213.162 87.3317 225.383C87.3377 225.462 87.3698 225.537 87.4232 225.597V225.682C87.4232 226.039 88.524 226.542 89.1226 226.831C91.7097 228.1 94.6094 228.59 97.4699 228.243C98.789 228.162 100.071 227.775 101.215 227.113C102.235 226.386 101.474 225.368 100.799 224.668C100.352 224.201 99.7825 223.871 99.1556 223.716C97.6578 223.462 96.1325 223.413 94.6215 223.57C93.8794 223.64 92.9481 223.613 92.013 223.624C98.4415 213.122 104.045 202.136 108.773 190.767Z" fill="#4B187A"/>
<path d="M111.542 215.393C112.22 209.894 112.817 204.352 113.246 198.803C113.685 193.139 114.947 186.418 113.424 180.825C112.197 176.323 108.817 174.146 104.728 172.386C98.9425 169.89 93.1209 167.346 87.2769 165.053C86.8552 164.889 86.5496 165.598 86.9651 165.795C95.5548 169.84 105.693 173.711 108.468 175.707C111.601 177.967 112.479 181.384 112.568 185.062C112.81 195.066 111.315 205.441 110.039 215.457C109.379 215.492 108.722 215.567 108.071 215.684C107.39 211.89 106.424 208.154 105.181 204.506C105.109 204.396 105.005 204.312 104.882 204.265C104.759 204.218 104.625 204.212 104.499 204.247C104.372 204.281 104.26 204.355 104.178 204.458C104.096 204.561 104.05 204.687 104.044 204.818C105.053 208.54 105.868 212.311 106.488 216.116V216.154C106.488 216.465 106.592 218.597 107.178 219.069C107.848 219.538 108.63 219.82 109.445 219.887C112.468 220.404 115.568 220.241 118.52 219.41C119.067 219.056 118.96 218.188 118.624 217.645C117.361 215.329 114.007 215.393 111.542 215.393Z" fill="#4B187A"/>
<path d="M57.6814 101.803L57.5651 101.882C57.4426 101.954 57.3427 102.059 57.2767 102.185C57.2107 102.311 57.1812 102.453 57.1915 102.595C57.2018 102.736 57.2515 102.873 57.335 102.988C57.4185 103.103 57.5326 103.192 57.6642 103.246C57.7958 103.3 57.9399 103.315 58.0801 103.292C58.2203 103.268 58.351 103.205 58.4576 103.111C58.5642 103.017 58.6424 102.895 58.6834 102.759C58.7243 102.623 58.7264 102.478 58.6894 102.341L58.6412 102.194C58.6124 102.098 58.5627 102.011 58.4959 101.938C58.429 101.864 58.3465 101.807 58.2545 101.769C58.1625 101.732 58.0633 101.715 57.9642 101.721C57.865 101.727 57.7684 101.755 57.6814 101.803Z" fill="#4B187A"/>
<path d="M63.1327 102.634C63.331 102.615 63.515 102.522 63.649 102.375C63.7829 102.227 63.8571 102.035 63.8571 101.836C63.8571 101.637 63.7829 101.445 63.649 101.297C63.515 101.15 63.331 101.058 63.1327 101.038C62.9344 101.058 62.7503 101.15 62.6164 101.297C62.4824 101.445 62.4082 101.637 62.4082 101.836C62.4082 102.035 62.4824 102.227 62.6164 102.375C62.7503 102.522 62.9344 102.615 63.1327 102.634Z" fill="#4B187A"/>
<path d="M65.0452 99.3947C63.3434 98.4523 61.31 98.9643 61.5438 100.177C61.5707 100.269 61.632 100.347 61.715 100.395C61.7979 100.443 61.8961 100.456 61.9891 100.433C62.4417 100.25 62.6681 99.9204 63.211 99.9575C63.754 99.9946 64.2561 100.25 64.8003 100.305C64.9052 100.3 65.0057 100.262 65.0875 100.196C65.1693 100.13 65.2281 100.04 65.2553 99.9394C65.2826 99.838 65.2769 99.7307 65.2392 99.6328C65.2014 99.5349 65.1335 99.4515 65.0452 99.3947Z" fill="#4B187A"/>
<path d="M55.1099 101.406C55.0868 101.507 55.0966 101.612 55.1379 101.707C55.1792 101.802 55.2497 101.881 55.3392 101.932C55.4288 101.984 55.5325 102.006 55.6352 101.994C55.738 101.983 55.8343 101.939 55.9101 101.868C56.2292 101.553 56.552 101.24 56.8995 100.958C57.3237 100.745 57.7945 100.642 58.2687 100.659C58.3628 100.655 58.4533 100.622 58.527 100.563C58.6006 100.505 58.6536 100.424 58.6781 100.333C58.7026 100.242 58.6973 100.146 58.663 100.058C58.6287 99.9706 58.5673 99.8963 58.4876 99.8461C57.2916 98.9977 55.4302 100.119 55.1099 101.406Z" fill="#4B187A"/>
<path d="M60.6836 105.267C60.5958 105.334 60.5313 105.428 60.4992 105.533C60.4672 105.639 60.4692 105.753 60.505 105.857C60.5408 105.962 60.6086 106.053 60.6988 106.117C60.789 106.181 60.897 106.215 61.0077 106.215C62.7627 106.268 61.6186 104.033 61.4418 103.246C61.4134 103.162 61.3596 103.089 61.2877 103.038C61.2158 102.986 61.1295 102.959 61.041 102.959C60.9526 102.959 60.8663 102.986 60.7944 103.038C60.7225 103.089 60.6686 103.162 60.6403 103.246C60.2396 104.503 61.3243 104.96 60.6836 105.267Z" fill="#4B187A"/>
<path d="M57.4924 107.26C57.4234 107.192 57.3342 107.149 57.2385 107.137C57.1428 107.126 57.0458 107.145 56.9625 107.194C56.8792 107.243 56.8142 107.317 56.7774 107.406C56.7406 107.496 56.7341 107.594 56.7589 107.688C57.036 108.755 58.953 110.223 60.0278 109.419C60.1304 109.358 60.2044 109.258 60.2336 109.142C60.2628 109.026 60.2449 108.903 60.1837 108.801C59.9437 108.4 59.1274 108.493 58.6414 108.273C58.1961 108.013 57.8057 107.669 57.4924 107.26Z" fill="#4B187A"/>
<path d="M31.2543 222.152C29.0478 222.256 26.824 222.286 24.6002 222.276C35.6363 219.013 33.2419 204.795 29.8023 193.808C30.1424 193.092 29.2074 192.209 28.6199 192.914C23.5415 198.813 9.90072 199.539 3.71665 194.428C3.68883 194.336 3.63208 194.256 3.55495 194.2C3.47781 194.144 3.38448 194.114 3.28901 194.116C3.19354 194.117 3.10111 194.149 3.02565 194.208C2.9502 194.266 2.8958 194.348 2.87067 194.44C1.269 201.669 -1.24792 212.82 4.19653 219.079C8.41283 223.71 13.7002 221.654 3.89722 222.597C3.37158 222.647 3.15514 223.484 3.75623 223.594C12.592 225.213 22.3332 224.388 31.2543 223.985C32.4392 223.931 32.4763 222.079 31.2543 222.152ZM14.8047 222.177C11.1375 221.963 7.66085 220.997 5.63866 219.121C-0.0271907 213.895 2.36234 202.44 3.58678 195.542C9.78817 200.86 23.1198 200.331 28.9229 194.8C30.5419 202.02 34.3302 215.249 26.7931 219.866C23.9975 221.336 20.8952 222.128 17.7372 222.177H14.8047Z" fill="#4B187A"/>
<path d="M61.88 228.085C61.2393 216.276 61.0921 204.431 60.3043 192.643C60.3043 192.481 60.2399 192.325 60.1253 192.211C60.0107 192.096 59.8553 192.032 59.6933 192.032C59.5313 192.032 59.3758 192.096 59.2613 192.211C59.1467 192.325 59.0823 192.481 59.0823 192.643C59.1281 204.406 59.6933 216.169 60.1385 227.92C58.2945 227.805 56.4457 228.052 54.6966 228.648C54.1289 228.839 54.1895 229.761 54.8438 229.735C56.0286 229.692 57.2085 229.564 58.3996 229.558C59.478 229.65 60.5628 229.637 61.6388 229.521C62.2498 229.397 62.1768 228.752 61.8218 228.421C61.8664 228.315 61.8863 228.2 61.88 228.085Z" fill="#4B187A"/>
<path d="M56.3863 37.5975C56.3085 37.5997 56.2326 37.6219 56.1658 37.6619C56.0991 37.7019 56.0437 37.7584 56.0051 37.826C55.9665 37.8935 55.9459 37.9699 55.9453 38.0477C55.9447 38.1255 55.9641 38.2022 56.0017 38.2703C56.217 38.5553 56.5284 38.7525 56.8782 38.8253C57.2279 38.8981 57.5921 38.8416 57.9033 38.6662C58.2145 38.4908 58.4515 38.2085 58.5703 37.8716C58.6892 37.5348 58.6818 37.1662 58.5495 36.8344C58.2989 36.205 57.9702 35.6095 57.5712 35.062C57.2855 34.6774 56.557 34.8728 56.7277 35.417C56.9317 35.914 57.1625 36.3995 57.419 36.8715C57.8383 37.8424 56.9923 37.5703 56.3863 37.5975Z" fill="#4B187A"/>
<path d="M54.1879 32.3662C54.0354 32.3659 53.8862 32.411 53.7593 32.4955C53.6324 32.5801 53.5335 32.7004 53.475 32.8413C53.4165 32.9821 53.4011 33.1372 53.4308 33.2867C53.4605 33.4363 53.5339 33.5737 53.6418 33.6816C53.7496 33.7894 53.887 33.8628 54.0366 33.8925C54.1862 33.9222 54.3412 33.9068 54.4821 33.8484C54.6229 33.7899 54.7433 33.6909 54.8278 33.564C54.9124 33.4371 54.9574 33.288 54.9572 33.1355C54.9572 32.9315 54.8761 32.7358 54.7318 32.5915C54.5876 32.4472 54.3919 32.3662 54.1879 32.3662Z" fill="#4B187A"/>
<path d="M60.2478 33.7608C60.4397 33.742 60.6178 33.6524 60.7474 33.5095C60.8769 33.3667 60.9487 33.1807 60.9487 32.9878C60.9487 32.7949 60.8769 32.609 60.7474 32.4661C60.6178 32.3232 60.4397 32.2336 60.2478 32.2148C60.0559 32.2336 59.8778 32.3232 59.7482 32.4661C59.6187 32.609 59.5469 32.7949 59.5469 32.9878C59.5469 33.1807 59.6187 33.3667 59.7482 33.5095C59.8778 33.6524 60.0559 33.742 60.2478 33.7608Z" fill="#4B187A"/>
<path d="M167.129 30.0018C167.203 30.0899 167.298 30.1585 167.404 30.2016C167.511 30.2447 167.626 30.2611 167.74 30.2492C166.875 34.6424 166.278 40.6384 168.962 44.4985C169.781 45.4564 170.782 46.2412 171.908 46.8068C173.033 47.3724 174.261 47.7074 175.517 47.7922C175.408 49.0116 175.394 50.2376 175.474 51.4593C175.426 52.7971 175.532 54.136 175.792 55.4493C175.828 55.5654 175.9 55.667 175.998 55.7392C176.096 55.8113 176.214 55.8503 176.336 55.8503C176.457 55.8503 176.576 55.8113 176.673 55.7392C176.771 55.667 176.843 55.5654 176.879 55.4493C177.033 54.1237 177.033 52.7849 176.879 51.4593C176.874 50.2315 176.778 49.0058 176.592 47.7922C177.638 47.798 178.666 47.5215 179.568 46.9919C179.693 46.9156 179.786 46.797 179.831 46.6578C179.875 46.5186 179.869 46.3679 179.812 46.2332C179.755 46.0985 179.652 45.9886 179.521 45.9236C179.39 45.8586 179.24 45.8427 179.098 45.8788C174.769 47.0426 170.069 45.2085 168.912 40.6545C168.009 37.0987 168.541 33.5478 168.636 29.9486C170.706 29.0593 172.644 27.889 174.396 26.4707C175.217 29.7337 177.105 32.6287 179.76 34.6955C180.936 35.6095 183.047 37.372 184.894 37.7134C184.549 38.2668 184.169 38.7976 183.757 39.3027C183.644 39.322 183.54 39.375 183.458 39.4547C183.376 39.5344 183.321 39.6371 183.298 39.7492C182.225 44.9116 183.766 50.3326 183.085 55.5878C183.006 56.1988 183.977 56.2965 184.123 55.7276C185.267 51.2923 184.57 46.3908 184.557 41.759C193.474 40.2563 197.499 29.3142 192.159 22.315C192.248 22.339 192.343 22.3381 192.432 22.3125C192.52 22.2868 192.601 22.2373 192.664 22.1693C192.727 22.1013 192.77 22.0174 192.788 21.9267C192.807 21.836 192.801 21.7419 192.77 21.6546C190.576 14.2609 178.02 10.5047 172.202 15.5942C172.146 15.6418 172.104 15.7018 172.076 15.7693C172.049 15.8368 172.038 15.9098 172.045 15.9823C172.051 16.0548 172.075 16.1248 172.114 16.1863C172.153 16.2478 172.206 16.2992 172.268 16.3363C166.826 17.8204 162.761 23.7856 166.562 29.6939C166.618 29.7934 166.701 29.8751 166.801 29.9296C166.902 29.984 167.015 30.0091 167.129 30.0018ZM175.251 25.673V25.6247C175.251 25.5753 175.374 25.5011 175.427 25.417C175.475 25.3628 175.504 25.2939 175.508 25.2215C178.941 22.6613 184.461 26.8467 185.792 29.9932C186.236 31.0509 186.441 32.1937 186.392 33.3398C186.344 34.486 186.043 35.6073 185.511 36.6237C183.018 35.8062 180.772 34.3741 178.979 32.4596C177.185 30.5451 175.904 28.2099 175.251 25.6693V25.673ZM184.576 40.302V40.1375C188.107 37.4982 188.497 31.58 186.164 28.0563C184.139 24.9989 178.947 21.8302 175.433 23.9439C175.6 23.6342 175.806 23.3467 176.044 23.088C176.786 22.4045 177.607 21.812 178.489 21.3231C179.529 20.7367 180.333 19.8078 180.764 18.6949C185.909 18.6949 190.971 20.9051 192.611 26.2778C194.456 32.3221 190.808 39.1196 184.576 40.2983V40.302ZM190.374 20.4487C188.994 19.1814 187.331 18.2633 185.523 17.7711C183.716 17.279 181.817 17.2272 179.985 17.6201C178.047 16.3001 175.679 15.7692 173.363 16.1359C179.375 13.201 186.558 15.6622 190.374 20.445V20.4487ZM169.152 19.3974C170.565 18.1763 172.352 17.4734 174.218 17.4046C176.084 17.3358 177.918 17.9052 179.417 19.0189C178.605 20.4487 176.845 20.9978 175.641 22.0739C174.675 22.9297 174.073 24.1206 173.954 25.4046C173.091 25.9741 172.194 26.4884 171.266 26.9444C170.078 27.6741 168.813 28.2705 167.494 28.723C166.28 25.4071 166.32 21.97 169.152 19.3937V19.3974Z" fill="#4B187A"/>
<path d="M175.014 43.6286C175.736 43.8171 176.502 43.7347 177.167 43.397C177.833 43.0593 178.351 42.4897 178.626 41.7957C178.826 41.2614 178.023 40.9818 177.74 41.4246C177.491 41.8078 177.129 42.1038 176.704 42.2714C176.279 42.439 175.812 42.4699 175.369 42.3596C175.205 42.326 175.035 42.3557 174.892 42.4427C174.749 42.5297 174.645 42.6677 174.6 42.8287C174.555 42.9896 174.573 43.1617 174.65 43.3102C174.726 43.4586 174.857 43.5724 175.014 43.6286Z" fill="#4B187A"/>
<path d="M154.713 94.9769C155.129 81.2112 155.935 61.8637 172.276 57.9826C173.42 77.5243 172.446 91.217 172.38 96.8779C172.37 97.7437 171.97 99.5235 172.991 99.9329C173.165 99.9806 173.351 99.9694 173.519 99.901C173.687 99.8326 173.828 99.7108 173.919 99.5544C174.175 98.9941 174.114 100.049 174.262 83.4832C174.339 74.9282 174.451 66.2148 173.29 57.739C173.18 57.2615 173.388 56.9078 172.3 57.0426C155.502 60.0976 153.033 80.9774 153.308 94.9287C153.306 95.1108 153.375 95.2864 153.501 95.4181C153.627 95.5497 153.799 95.6269 153.981 95.6332C154.163 95.6395 154.341 95.5744 154.475 95.4518C154.61 95.3291 154.691 95.1587 154.702 94.9769H154.713Z" fill="#4B187A"/>
<path d="M188.757 57.2566C188.749 57.1545 188.707 57.0583 188.637 56.9838C188.566 56.9094 188.473 56.8614 188.371 56.8478C188.27 56.8341 188.167 56.8558 188.079 56.909C187.992 56.9623 187.926 57.0439 187.891 57.1403C185.481 69.6074 184.417 90.0124 184.305 100.458C184.264 104.363 184.17 108.397 186.048 111.922C186.436 112.648 187.705 112.147 187.409 111.347C185.812 107.07 185.888 102.792 185.925 98.2891C186.078 79.0666 187.496 71.8436 188.757 57.2566Z" fill="#4B187A"/>
<path d="M184.304 100.458C184.427 89.2293 185.529 69.585 187.863 57.4457C187.704 57.2234 187.493 57.0421 187.25 56.9168C187.007 56.7914 186.737 56.7256 186.463 56.7246H185.103C184.169 58.1173 183.406 59.9824 181.584 60.2804C180.521 60.4783 179.424 60.3583 178.43 59.9354C177.435 59.5126 176.587 58.8057 175.992 57.9033C175.017 56.0728 173.877 56.9015 173.271 57.604V57.7635C174.433 66.2382 174.283 74.9763 174.244 83.5078C174.244 83.6315 174.083 98.947 174.06 99.0706C174.055 99.2451 174.003 99.4148 173.909 99.5621C173.816 99.7094 173.684 99.8289 173.529 99.908C176.141 103.495 178.352 104.769 185.139 109.776C184.38 106.732 184.099 103.589 184.304 100.458Z" fill="#F56B0C"/>
<path d="M200.543 167.944C198.396 147.66 197.159 127.253 194.861 106.99C194.785 106.331 193.773 106.294 193.803 106.99C194.714 127.322 197.191 147.697 199.211 167.944C199.295 168.787 200.633 168.794 200.543 167.944Z" fill="#4B187A"/>
<path d="M162.445 86.569C162.436 86.1348 161.725 85.9951 161.65 86.4651C160.874 91.0582 160.74 95.7369 161.253 100.367C161.331 101.015 162.337 101.057 162.298 100.367C162.029 95.7783 162.524 91.1724 162.445 86.569Z" fill="#4B187A"/>
<path d="M190.808 57.1824C201.568 59.0377 211.828 67.0831 215.447 77.5379C219.941 90.5245 211.451 101.62 199.193 105.439C199.074 105.506 198.982 105.611 198.93 105.737C198.878 105.863 198.87 106.002 198.907 106.134C198.943 106.265 199.022 106.38 199.132 106.461C199.241 106.542 199.374 106.584 199.51 106.58C212.22 104.094 220.9 91.1763 217.016 78.6164C213.507 67.2513 202.776 57.7848 190.937 56.2511C190.411 56.1794 190.283 57.0959 190.808 57.1824Z" fill="#4B187A"/>
<path d="M197.175 90.4892C199.253 89.502 201.041 87.9949 202.365 86.1138C203.69 84.2328 204.506 82.0415 204.735 79.7524C204.784 79.2095 203.959 79.134 203.818 79.6287C202.725 83.7049 200.155 87.2288 196.608 89.5158C196.544 89.5531 196.488 89.6026 196.443 89.6615C196.398 89.7204 196.365 89.7875 196.347 89.8591C196.328 89.9306 196.323 90.0052 196.333 90.0785C196.343 90.1518 196.367 90.2225 196.405 90.2864C196.442 90.3503 196.492 90.4062 196.55 90.451C196.609 90.4958 196.676 90.5285 196.748 90.5474C196.82 90.5662 196.894 90.5708 196.967 90.5608C197.041 90.5508 197.111 90.5265 197.175 90.4892Z" fill="#4B187A"/>
<path d="M195.062 88.31C191.303 95.1236 194.415 103.137 197.506 109.562C197.941 110.466 199.342 109.665 198.866 108.768C195.377 102.169 193.977 95.9362 195.92 88.6637C195.958 88.5517 195.953 88.4292 195.904 88.3213C195.855 88.2133 195.767 88.1281 195.657 88.083C195.548 88.0378 195.425 88.0362 195.314 88.0784C195.204 88.1206 195.113 88.2034 195.062 88.31Z" fill="#4B187A"/>
<path d="M234.86 137.752C234.167 134.66 230.274 134.563 228.559 136.908C228.243 137.343 228.944 137.873 229.302 137.482C229.715 137.042 230.24 136.721 230.821 136.554C231.402 136.388 232.017 136.381 232.601 136.535C235.275 137.806 232.714 142.837 232.045 144.564C229.889 150.141 226.444 154.706 223.063 159.548C222.634 160.167 223.582 160.88 224.102 160.349C227.423 156.699 230.12 152.527 232.082 147.999C233.376 145.206 235.573 140.929 234.86 137.752Z" fill="#4B187A"/>
<path d="M204.302 139.292C204.673 139.449 204.961 138.882 204.686 138.631C202.41 136.551 199.788 139.132 199.863 141.686C199.922 143.665 201.223 145.397 202.307 146.96C203.879 149.208 205.66 151.303 207.625 153.217C208.243 153.823 209.251 152.846 208.596 152.24C206.522 150.329 202.783 146.265 201.563 143.722C200.617 141.746 200.909 137.859 204.302 139.292Z" fill="#4B187A"/>
<path d="M226.403 159.38C225.884 159.453 226.013 160.298 226.527 160.284C227.468 160.257 229.933 161.168 228.025 162.08C227.261 162.247 226.476 162.299 225.696 162.233C223.642 162.298 221.587 162.393 219.549 162.655C222.429 153.734 224.804 144.657 226.662 135.469C227.2 132.609 228.923 121.781 223.998 121.369C219.653 120.998 217.761 130.352 217.355 133.242C216.297 142.428 216.24 151.702 217.184 160.9C217.226 161.42 218.028 161.438 218.015 160.9C217.855 154.001 217.742 147.116 217.789 140.216C217.759 137.187 217.998 134.163 218.504 131.177C218.875 129.198 220.301 123.479 222.585 122.854C229.602 120.939 224.266 140.484 223.582 143.21C219.662 158.82 217.972 162.17 218.14 162.849C216.991 162.898 215.848 162.947 214.699 163.014C214.984 162.454 214.999 149.716 215.048 146.46C215.119 141.797 215.591 136.813 214.259 132.272C213.575 129.938 209.742 122.084 206.689 126.447C204.53 129.539 206.006 135.449 206.565 138.834C207.834 146.496 210.426 153.683 210.842 161.53C210.898 162.562 212.523 162.569 212.462 161.53C211.882 151.576 207.525 142.402 207.084 132.492C207.025 131.153 206.666 128.12 207.793 127.095C210.244 124.869 212.693 131.725 212.938 132.638C214.602 138.832 213.077 149.789 213.659 162.764C213.665 162.87 213.701 162.971 213.763 163.057C208.498 163.379 208.174 163.544 206.675 163.428C205.592 163.342 203.64 163.257 205.893 161.406C206.841 160.927 207.887 160.676 208.948 160.672C209.431 160.601 209.302 159.841 208.838 159.841C207.286 159.841 204.393 160.16 203.803 161.998C203.666 162.434 203.702 162.905 203.904 163.315C204.105 163.724 204.456 164.041 204.884 164.199C206.378 164.983 208.514 164.635 210.103 164.498C212.813 164.264 207.382 164.792 226.669 163.318C227.72 163.4 228.77 163.143 229.664 162.585C231.717 160.65 227.925 159.162 226.403 159.38Z" fill="#4B187A"/>
<path d="M226.141 190.999C223.88 190.939 221.601 191.342 219.328 191.354C217.054 191.366 214.787 191.128 212.514 191.049C212.386 191.057 212.265 191.11 212.171 191.197C212.077 191.285 212.017 191.402 211.999 191.529C211.982 191.657 212.01 191.786 212.077 191.895C212.144 192.005 212.247 192.087 212.368 192.13C216.553 193.212 222.145 193.548 226.306 192.221C226.391 192.216 226.474 192.194 226.55 192.156C226.626 192.117 226.694 192.063 226.748 191.998C226.803 191.932 226.843 191.856 226.866 191.774C226.89 191.692 226.896 191.606 226.884 191.521C226.873 191.437 226.844 191.355 226.8 191.282C226.756 191.21 226.697 191.147 226.627 191.098C226.557 191.049 226.478 191.014 226.394 190.998C226.311 190.981 226.225 190.981 226.141 190.999Z" fill="#4B187A"/>
<path d="M172.801 40.2985C172.861 40.279 172.916 40.2468 172.962 40.2042C173.008 40.1616 173.045 40.1096 173.069 40.0516C173.093 39.9936 173.105 39.9311 173.103 39.8683C173.101 39.8055 173.085 39.7438 173.057 39.6876C172.924 39.4612 172.81 39.4315 172.606 39.2782C172.429 39.1248 172.301 38.9241 172.235 38.6999C172.169 38.4756 172.169 38.2372 172.235 38.0129C172.404 37.2765 172.633 36.5551 172.92 35.8559C172.946 35.749 172.933 35.6365 172.883 35.5383C172.834 35.4402 172.751 35.3626 172.65 35.3195C172.549 35.2764 172.436 35.2704 172.331 35.3027C172.226 35.335 172.136 35.4035 172.076 35.496C171.478 36.4571 171.198 37.5823 171.276 38.7117C171.378 39.4192 171.902 40.5781 172.801 40.2985Z" fill="#4B187A"/>
<path d="M175.496 35.7578C175.677 35.7578 175.855 35.7041 176.005 35.6034C176.156 35.5027 176.274 35.3595 176.343 35.1921C176.412 35.0246 176.43 34.8403 176.395 34.6626C176.36 34.4848 176.272 34.3216 176.144 34.1934C176.016 34.0652 175.853 33.9779 175.675 33.9425C175.497 33.9071 175.313 33.9253 175.145 33.9947C174.978 34.064 174.835 34.1815 174.734 34.3322C174.633 34.4829 174.58 34.6601 174.58 34.8414C174.58 35.0844 174.676 35.3175 174.848 35.4894C175.02 35.6613 175.253 35.7578 175.496 35.7578Z" fill="#4B187A"/>
<path d="M170.289 34.7746C170.455 34.7545 170.609 34.6742 170.72 34.5488C170.831 34.4235 170.892 34.2618 170.892 34.0943C170.892 33.9268 170.831 33.7651 170.72 33.6398C170.609 33.5145 170.455 33.4342 170.289 33.4141C170.123 33.4342 169.97 33.5145 169.859 33.6398C169.748 33.7651 169.686 33.9268 169.686 34.0943C169.686 34.2618 169.748 34.4235 169.859 34.5488C169.97 34.6742 170.123 34.7545 170.289 34.7746Z" fill="#4B187A"/>
<path d="M172.123 31.6517C171.339 30.2182 168.289 30.9022 168.908 31.8855C169.235 32.4024 169.636 31.857 170.59 32.0376C170.94 32.1031 171.208 32.3295 171.55 32.4086C171.647 32.4311 171.75 32.4249 171.844 32.3907C171.938 32.3565 172.021 32.2958 172.081 32.2158C172.142 32.1358 172.178 32.04 172.186 31.94C172.193 31.8399 172.171 31.7398 172.123 31.6517Z" fill="#4B187A"/>
<path d="M177.38 32.6429C176.823 31.5297 175.075 31.4741 174.024 31.6955C173.45 31.8192 173.602 32.6775 174.159 32.6973C175.595 32.748 175.652 33.1562 176.88 33.4913C177.355 33.5532 177.548 32.9781 177.38 32.6429Z" fill="#4B187A"/>
<path d="M171.083 116.351C169.978 116.151 168.838 116.372 167.887 116.97C167.599 117.171 167.655 117.764 168.089 117.712C168.523 117.66 169.072 117.487 169.573 117.388C170.074 117.289 170.637 117.017 171.169 116.949C171.51 116.926 171.437 116.351 171.083 116.351Z" fill="#4B187A"/>
<path d="M162.994 117.055C163.09 117.075 163.19 117.06 163.276 117.014C163.362 116.969 163.43 116.894 163.468 116.804C163.505 116.713 163.51 116.613 163.482 116.519C163.454 116.426 163.394 116.345 163.312 116.291C162.719 115.878 162.044 115.599 161.333 115.472C161.286 115.473 161.24 115.484 161.197 115.504C161.154 115.523 161.116 115.551 161.084 115.586C161.052 115.62 161.027 115.661 161.011 115.705C160.995 115.749 160.988 115.796 160.991 115.843C161.191 116.201 161.481 116.501 161.833 116.713C162.184 116.926 162.584 117.044 162.994 117.055Z" fill="#4B187A"/>
<path d="M168.229 124.864C168.094 124.827 167.951 124.845 167.829 124.913C167.708 124.982 167.619 125.096 167.581 125.231C167.544 125.365 167.562 125.509 167.631 125.631C167.699 125.752 167.814 125.841 167.948 125.878C169.954 126.463 171.62 125.013 172.458 123.281C172.524 123.148 172.539 122.995 172.498 122.852C172.457 122.709 172.363 122.587 172.236 122.51C172.109 122.433 171.957 122.406 171.811 122.436C171.666 122.466 171.536 122.549 171.45 122.67C170.704 123.871 169.837 125.309 168.229 124.864Z" fill="#4B187A"/>
<path d="M167.709 174.703C168.8 171.961 168.229 168.588 167.306 165.872C167.264 165.758 167.181 165.664 167.073 165.609C166.965 165.554 166.84 165.541 166.724 165.574C166.607 165.606 166.506 165.681 166.442 165.784C166.378 165.887 166.355 166.01 166.377 166.129C167.179 169.051 166.774 171.628 166.61 174.556C166.573 175.211 167.494 175.246 167.709 174.703Z" fill="#4B187A"/>
<path d="M171.8 174.928C172.556 171.795 172.423 168.513 171.414 165.452C171.372 165.311 171.276 165.192 171.147 165.121C171.018 165.05 170.867 165.032 170.725 165.071C170.583 165.11 170.462 165.203 170.388 165.33C170.314 165.457 170.292 165.608 170.327 165.751C170.965 168.727 171.171 171.779 170.938 174.813C170.953 174.91 170.998 175 171.068 175.069C171.138 175.137 171.229 175.182 171.326 175.195C171.423 175.208 171.522 175.189 171.608 175.141C171.693 175.092 171.761 175.018 171.8 174.928Z" fill="#4B187A"/>
<path d="M175.528 171.624C176.255 169.128 176.017 166.449 174.861 164.119C174.625 163.581 173.653 163.967 173.902 164.53C174.931 166.852 174.767 169.018 174.599 171.502C174.561 172.062 175.356 172.093 175.528 171.624Z" fill="#4B187A"/>
<path d="M121.585 210.425C121.106 210.548 120.314 211.685 120.083 212.008C118.553 214.144 121.806 215.169 123.316 215.064C126.418 214.846 129.542 214.453 132.634 214.074C132.773 214.067 132.906 214.021 133.019 213.941C133.132 213.861 133.22 213.751 133.273 213.623C133.326 213.495 133.342 213.355 133.318 213.219C133.295 213.082 133.234 212.955 133.141 212.852C132.304 211.795 130.421 210.182 130.6 210.176C130.6 210.176 133.264 182.719 134.376 157.488C136.795 159.259 139.782 160.077 142.766 159.786C128.858 167.973 147.043 213.272 149.487 219.26C144.599 217.947 138.864 218.251 134.615 221.222C132.778 222.506 129.933 225.452 132.836 227.167C134.461 228.127 136.649 227.871 138.446 227.736C142.492 227.432 146.54 227.296 150.567 226.721C152.247 226.482 156.201 226.574 157.582 225.237C158.682 224.173 158.41 221.808 158.272 220.451C158.201 219.736 157.061 219.44 156.912 220.268C156.559 222.193 156.997 223.237 154.597 224.449C153.223 224.882 151.795 225.122 150.355 225.164C146.876 225.663 143.371 225.963 139.857 226.062C138.366 226.107 136.05 227.107 134.968 225.627C134.762 225.276 134.632 224.885 134.586 224.481C134.54 224.076 134.579 223.666 134.7 223.277C134.963 222.19 137.375 221.393 138.268 221.051C141.93 219.827 145.855 219.613 149.628 220.433C149.721 220.447 149.815 220.44 149.904 220.411C149.994 220.383 150.075 220.334 150.143 220.269C150.21 220.204 150.261 220.125 150.293 220.037C150.324 219.948 150.335 219.854 150.325 219.761C153.445 219.399 156.583 219.205 159.724 219.181C160.776 210.23 160.941 210.721 161.191 192.776C160.47 177.836 157.794 161.609 149.758 158.899C154.097 158.139 157.101 157.332 159.571 159.308C160.58 160.115 161.674 162.771 162.052 163.794C163.094 166.621 163.624 169.611 163.617 172.624C163.624 172.785 163.693 172.937 163.81 173.049C163.926 173.161 164.082 173.223 164.243 173.223C164.405 173.223 164.56 173.161 164.676 173.049C164.793 172.937 164.862 172.785 164.869 172.624C164.894 168.346 164.02 161.301 160.329 158.068C160.991 157.234 161.766 156.498 162.633 155.881C163.31 155.336 165.231 153.589 166.281 153.589C168.323 155.146 170.186 156.924 171.835 158.893C172.29 159.433 173.057 158.655 172.612 158.117C166.226 150.397 157.973 147.095 148.102 148.878C147.601 148.968 147.711 149.844 148.226 149.782C155.111 148.945 159.789 149.118 165.249 152.862C164.168 153.39 163.168 154.071 162.281 154.884C161.238 155.605 160.319 156.49 159.56 157.506C156.715 155.611 153.768 156.708 150.407 157.243C145.605 158.007 138.583 159.462 134.666 155.635C130.035 151.102 135.552 145.037 139.757 142.803C142.956 141.158 146.393 140.026 149.944 139.447C155.457 138.472 162.165 137.041 167.597 139.076C168.66 141.264 170.09 143.207 172.614 143.549C173.73 143.802 174.891 143.772 175.993 143.463C177.094 143.154 178.101 142.575 178.922 141.778C179.058 141.775 179.192 141.739 179.312 141.675C179.432 141.61 179.536 141.519 179.614 141.407C196.888 138.553 194.431 162.885 194.713 173.586C195.398 199.548 193.81 204.754 196.429 212.131C196.612 212.645 197.482 212.609 197.438 211.997C197.401 211.483 197.383 210.976 197.358 210.463C200.548 210.463 203.616 210.427 205.913 212.779C199.741 214.387 193.453 214.322 187.086 214.118C186.145 214.087 186.145 215.557 187.086 215.585C193.968 215.784 200.832 215.907 207.494 213.941C207.62 213.903 207.735 213.833 207.827 213.739C207.919 213.644 207.985 213.527 208.019 213.399C208.052 213.272 208.053 213.138 208.02 213.01C207.987 212.882 207.922 212.765 207.83 212.669C204.952 209.052 201.923 209.413 197.441 209.492C196.846 209.502 196.657 176.008 195.986 162.758C195.691 156.921 196.119 149.628 192.319 144.75C190.859 142.886 188.892 141.484 186.654 140.71C184.417 139.936 182.004 139.824 179.704 140.386C179.685 140.347 179.663 140.311 179.637 140.276C178.011 134.001 178.286 127.615 177.241 121.291C177.999 121.26 178.732 121.013 179.355 120.581C179.75 120.249 180.047 119.816 180.216 119.328C180.386 118.841 180.42 118.316 180.316 117.811C180.212 117.305 179.974 116.837 179.626 116.456C179.279 116.074 178.835 115.794 178.341 115.644C179.016 114.834 179.521 113.897 179.825 112.888C180.779 108.715 176.336 109.701 173.843 109.833C172.977 109.879 170.992 109.478 170.653 110.627C170.37 111.586 171.485 112.75 172.003 113.432C172.992 114.761 174.162 115.944 175.48 116.946C175.543 116.976 175.612 116.992 175.682 116.994C175.776 117.116 175.898 117.213 176.036 117.28C176.175 117.347 176.327 117.38 176.481 117.379C176.635 117.377 176.786 117.339 176.923 117.27C177.06 117.2 177.179 117.099 177.271 116.976C178.425 116.49 179.345 117.818 178.988 118.999C178.617 119.812 177.662 119.799 176.873 119.97C176.778 119.91 176.67 119.875 176.558 119.869C176.447 119.863 176.335 119.886 176.235 119.936C176.135 119.985 176.049 120.06 175.986 120.153C175.924 120.246 175.886 120.353 175.877 120.465C175.44 127.32 176.167 134.2 178.028 140.813C177.422 141.41 176.687 141.86 175.88 142.129C175.073 142.398 174.215 142.479 173.371 142.365C171.374 142.249 170.292 141.005 169.253 139.535C169.374 139.399 169.442 139.223 169.442 139.041C169.442 138.858 169.374 138.682 169.253 138.546C169.088 136.129 168.616 133.743 167.848 131.445C167.812 131.354 167.75 131.276 167.671 131.219C168.696 131.029 169.674 130.639 170.549 130.07C171.423 129.502 172.177 128.767 172.767 127.907C173.214 127.254 172.224 126.528 171.679 127.076C169.978 128.79 167.952 130.479 165.281 129.642C162.611 128.805 161.671 125.625 161.004 123.239C160.061 119.397 159.912 115.403 160.564 111.5C160.665 111.455 160.745 111.375 160.791 111.275C160.836 111.175 160.844 111.062 160.811 110.956C160.566 109.606 160.725 108.213 161.269 106.953C161.812 105.693 162.717 104.622 163.868 103.874C166.11 102.206 169.143 102.97 171.725 103.263C172.246 103.321 172.336 102.501 171.849 102.364C168.735 101.49 165.177 101.112 162.628 103.386C160.442 105.335 158.803 108.157 159.867 111.091C159.815 111.118 159.769 111.156 159.733 111.203C159.698 111.249 159.672 111.302 159.659 111.359C157.895 118.856 159.333 131.695 166.863 131.272C166.996 133.473 167.244 135.666 167.605 137.841C163.133 135.862 156.883 137.09 152.384 137.841C146.422 138.83 139.344 140.102 134.841 144.507C134.953 138.296 135.072 125.812 133.588 119.754C133.364 118.418 132.871 117.141 132.14 116.001C131.932 115.805 131.695 115.643 131.437 115.519C125.872 112.137 123.027 102.125 127.533 97.0578C128.087 96.4394 127.191 95.4884 126.585 96.1105C123.142 99.6515 123.346 106.42 125.912 111.338C124.586 112.891 121.691 114.554 119.57 114.297C119.035 114.224 118.529 114.011 118.103 113.678C117.29 106.752 117.791 99.8691 117.621 92.8997C117.45 85.9303 116.24 79.2601 116.266 72.3364C116.266 71.8788 115.503 71.7253 115.435 72.2201C114.479 79.2476 116.139 86.5374 116.254 93.6071C116.359 100.049 115.924 106.551 117.006 112.918C114.662 111.11 113.2 113.379 111.329 113.536C109.684 113.661 108.044 113.247 106.655 112.356C106.606 112.325 106.556 112.356 106.508 112.356C106.513 112.328 106.513 112.299 106.508 112.271C107.119 107.731 107.429 100.619 103.557 97.3237C103.075 96.9143 102.387 97.5835 102.853 98.0263C103.732 98.8689 104.384 99.9202 104.748 101.083C102.34 99.9817 97.8133 100.389 96.4009 100.472C95.7528 100.509 95.7404 101.5 96.4009 101.486C98.0196 101.462 99.6377 101.564 101.24 101.791C102.675 101.984 105.162 101.973 105.359 103.894C105.661 107.564 105.349 111.259 104.436 114.826C103.846 116.904 101.014 118.114 98.9673 117.974C93.1073 129.021 102.151 165.887 102.151 165.887C106.67 167.598 110.444 170.842 112.814 175.053C112.979 175.333 113.232 175.55 113.533 175.671C113.834 175.792 114.167 175.809 114.48 175.72C114.792 175.632 115.066 175.442 115.259 175.181C115.452 174.92 115.552 174.602 115.545 174.277L114.727 130.758C114.143 130.647 113.563 130.523 112.985 130.387C112.896 130.358 112.819 130.299 112.769 130.22C112.719 130.14 112.698 130.045 112.712 129.952C112.725 129.859 112.771 129.774 112.841 129.711C112.911 129.649 113.001 129.613 113.095 129.611C114.822 129.566 116.547 129.757 118.222 130.179C118.332 130.214 118.427 130.286 118.49 130.384C118.552 130.482 118.579 130.598 118.564 130.714C118.549 130.829 118.494 130.935 118.409 131.014C118.324 131.092 118.214 131.139 118.098 131.145C117.669 131.161 117.24 131.138 116.816 131.077L121.585 210.425ZM121.324 212.784C121.303 212.688 121.263 212.596 121.207 212.515C124.262 209.546 128.406 209.882 131.302 212.886C128.218 213.322 121.645 214.239 121.319 212.784H121.324Z" fill="#4B187A"/>
<path d="M99.455 117.996C101.291 117.996 103.961 116.796 104.509 114.855C105.422 111.287 105.734 107.592 105.432 103.922C105.235 102.002 102.748 102.014 101.313 101.82C99.7103 101.604 98.0947 101.503 96.478 101.516C96.3477 101.509 96.2248 101.453 96.1348 101.358C96.0449 101.264 95.9947 101.138 95.9947 101.008C95.9947 100.877 96.0449 100.752 96.1348 100.657C96.2248 100.563 96.3477 100.507 96.478 100.5C97.8904 100.412 102.415 99.9997 104.826 101.112C104.462 99.9506 103.811 98.8993 102.932 98.0566C102.465 97.6126 103.152 96.9435 103.635 97.3541C107.507 100.647 107.221 107.743 106.586 112.301C106.591 112.329 106.591 112.358 106.586 112.386H106.733C108.121 113.277 109.762 113.691 111.407 113.566C113.271 113.404 114.746 111.136 117.084 112.947C116.003 106.579 116.437 100.085 116.333 93.6375C116.218 86.5802 114.545 79.2905 115.514 72.2505C115.58 71.7682 116.349 71.9079 116.344 72.3668C116.274 79.2929 117.524 86.0422 117.695 92.935C117.865 99.8277 117.366 106.787 118.178 113.713C118.623 114.026 119.134 114.231 119.672 114.313C120.21 114.395 120.759 114.351 121.276 114.184C123.084 113.714 124.718 112.736 125.988 111.367C123.421 106.448 123.19 99.6546 126.659 96.1396C127.266 95.5212 128.167 96.4438 127.607 97.087C123.958 101.268 125.133 108.218 128.511 112.784C129.447 114.065 130.653 115.124 132.043 115.889C132.846 116.078 133.663 116.199 134.487 116.25C136.714 116.233 138.886 115.554 140.727 114.301C143.585 112.423 145.876 109.8 147.352 106.715C148.829 103.63 149.435 100.201 149.105 96.7975C148.702 92.6188 147.588 88.5397 145.811 84.7361C139.465 69.9587 136.97 69.0991 120.596 64.2285C119.765 64.7356 119.722 65.7374 119.337 66.5438C118.387 68.5413 116.515 71.0595 114.009 69.8622C113.122 69.3715 112.371 68.6678 111.824 67.8145C111.276 66.9612 110.95 65.9852 110.874 64.9743C110.874 65.0102 107.741 66.4016 105.949 67.1796C105.609 67.327 105.315 67.5642 105.1 67.8658C104.885 68.1674 104.756 68.5219 104.727 68.8913C104.432 72.4393 102.837 75.7534 100.248 78.1971C96.7006 81.5724 91.1597 82.7177 88.179 83.0862C87.5317 83.1671 86.9222 83.4358 86.4259 83.8592C85.9296 84.2825 85.5682 84.8419 85.3862 85.4683C84.2094 90.2165 83.5578 95.0795 83.4432 99.97C83.1961 103.634 84.1313 107.28 86.1112 110.374C88.0911 113.467 91.0112 115.843 94.4422 117.153C96.0322 117.794 97.7427 118.082 99.455 117.996Z" fill="#F56B0C"/>
<path d="M177.207 107.602C177.313 107.597 177.415 107.554 177.493 107.482C177.572 107.41 177.623 107.313 177.638 107.207C177.653 107.101 177.63 106.993 177.574 106.903C177.518 106.812 177.432 106.743 177.33 106.709C175.128 105.922 172.747 105.782 170.469 106.306C168.861 106.771 166.919 107.712 166.691 109.502C166.633 109.967 167.31 110.079 167.522 109.728C169.778 106.059 173.822 107.509 177.207 107.602Z" fill="#4B187A"/>
<path d="M173.553 103.997C169.948 103.908 162.777 105.018 162.902 109.933C162.914 110.391 163.672 110.544 163.751 110.05C164.485 105.473 170.137 105.597 173.669 104.843C174.158 104.735 174.026 104.008 173.553 103.997Z" fill="#4B187A"/>
<path d="M181.851 205.91C181.803 206.802 182.05 207.684 182.553 208.421C184.386 210.548 190.441 209.957 192.789 209.643C193.754 209.519 193.808 207.988 192.789 208.085C189.79 208.474 186.743 208.264 183.825 207.466C183.426 206.396 183.265 205.251 183.354 204.112C183.036 198.217 183.913 177.892 184.039 171.976C184.039 171.857 183.992 171.743 183.907 171.658C183.823 171.574 183.709 171.527 183.59 171.527C183.471 171.527 183.357 171.574 183.272 171.658C183.188 171.743 183.141 171.857 183.141 171.976C182.8 180.323 182.572 188.673 182.377 197.03C179.688 197.03 166.281 196.945 162.395 196.033C162.605 203.186 162.479 212.269 162.34 215.092L164.924 216.767C165.01 217.035 165.09 217.311 165.194 217.561C165.194 217.561 164.643 222.101 172.3 221.68C179.957 221.258 182.263 220.257 182.774 216.528C182.895 213.733 182.504 210.939 181.618 208.285L181.851 205.91Z" fill="#4B187A"/>
<path d="M165.279 122.695C165.358 122.646 165.421 122.575 165.461 122.491C165.501 122.406 165.516 122.312 165.503 122.22C165.491 122.128 165.452 122.041 165.392 121.97C165.332 121.899 165.252 121.847 165.163 121.82C164.688 121.691 164.158 121.796 164.406 121.515C164.173 121.02 165.039 118.988 165.148 118.319C165.173 118.216 165.16 118.108 165.112 118.013C165.064 117.918 164.984 117.844 164.887 117.803C164.789 117.762 164.68 117.757 164.579 117.789C164.478 117.821 164.391 117.888 164.335 117.978C164.046 118.46 163.859 118.996 163.786 119.553C163.619 120.273 163.508 121.004 163.456 121.741C163.389 122.663 164.57 123.031 165.279 122.695Z" fill="#4B187A"/>
<path d="M166.794 114.549C166.423 114.862 166.831 115.393 167.234 115.307C167.76 115.137 168.303 115.026 168.853 114.977C169.37 115.025 169.875 115.155 170.351 115.362C170.457 115.381 170.565 115.369 170.665 115.329C170.765 115.29 170.851 115.223 170.915 115.136C170.978 115.05 171.017 114.947 171.025 114.84C171.033 114.733 171.011 114.626 170.962 114.531C170.094 113.205 167.849 113.661 166.794 114.549Z" fill="#4B187A"/>
<path d="M163.696 115.05C163.795 115.104 163.909 115.125 164.021 115.109C164.133 115.093 164.236 115.041 164.316 114.962C164.397 114.882 164.449 114.779 164.466 114.667C164.483 114.556 164.464 114.441 164.411 114.342C164.094 113.733 163.244 113.59 162.633 113.476C162.289 113.395 161.93 113.403 161.59 113.499C161.25 113.595 160.941 113.777 160.69 114.026C160.646 114.089 160.622 114.163 160.619 114.24C160.617 114.316 160.638 114.392 160.678 114.457C160.718 114.522 160.777 114.573 160.846 114.606C160.916 114.638 160.993 114.649 161.069 114.637C161.966 114.454 162.898 114.601 163.696 115.05Z" fill="#4B187A"/>
<path d="M128.584 100.83C132.099 99.8406 135.533 98.4232 137.75 95.3881C138.13 94.8686 137.255 94.1686 136.846 94.6918C134.702 97.4449 131.506 98.7139 128.334 99.9099C127.769 100.122 127.979 101.002 128.584 100.83Z" fill="#4B187A"/>
</g>
</svg>
